<svg xmlns="http://www.w3.org/2000/svg" viewBox="0 0 200 200"><g fill="#FFF"><path d="M99.998 0C44.775 0 0 44.756 0 100c0 55.22 44.775 100.002 99.998 100.002C155.233 200.002 200 155.222 200 100 200 44.756 155.233 0 99.998 0zm0 193.334c-51.54 0-93.33-41.795-93.33-93.334 0-51.56 41.79-93.332 93.33-93.332 51.552 0 93.334 41.77 93.334 93.332 0 51.54-41.782 93.334-93.334 93.334z"/><path d="M99.998 16.668c-46.02 0-83.33 37.296-83.33 83.332 0 46.017 37.31 83.334 83.33 83.334 46.028 0 83.334-37.317 83.334-83.334 0-46.036-37.306-83.332-83.334-83.332zm41.334 87.744L110 122.502l-31.334 18.09c-4.215 2.435-7.637.46-7.637-4.41v-72.36c0-4.87 3.42-6.847 7.635-4.41L110 77.5l31.332 18.093c4.222 2.435 4.222 6.384 0 8.817z"/></g></svg>