<svg xmlns="http://www.w3.org/2000/svg" viewBox="0 0 200 200"><path d="M153.774 185.894c-48.408 0-87.79-39.383-87.79-87.79s39.382-87.792 87.79-87.792c14.997 0 29.808 3.855 42.83 11.146 1.797 1.007 2.726 3.07 2.29 5.082-.437 2.014-2.137 3.505-4.19 3.677-16.963 1.42-32.695 9.11-44.296 21.654-11.667 12.62-18.093 29.04-18.093 46.24s6.425 33.62 18.093 46.23c11.6 12.55 27.333 20.24 44.297 21.66 2.053.17 3.753 1.665 4.19 3.678.435 2.013-.494 4.075-2.292 5.08-13.022 7.29-27.832 11.147-42.83 11.147zm0-166.21c-43.24 0-78.42 35.18-78.42 78.42s35.18 78.418 78.42 78.418c8.475 0 16.88-1.377 24.858-4.036-13.35-3.908-25.48-11.378-35.105-21.787-13.274-14.36-20.584-33.04-20.584-52.6s7.31-38.24 20.584-52.6c9.626-10.41 21.754-17.88 35.105-21.79-7.976-2.66-16.383-4.037-24.858-4.037zm-130.75 5.25c-2.587 0-4.685-2.1-4.685-4.687v-5.56c0-2.59 2.09-4.687 4.68-4.687s4.68 2.098 4.68 4.686v5.56c0 2.59-2.098 4.687-4.687 4.687zm0 29.116c-2.587 0-4.685-2.097-4.685-4.685v-5.56c0-2.59 2.09-4.687 4.68-4.687s4.68 2.098 4.68 4.686v5.56c0 2.59-2.098 4.687-4.687 4.687zM11.248 36.712h-5.56C3.098 36.712 1 34.614 1 32.025c0-2.588 2.098-4.686 4.686-4.686h5.56c2.59 0 4.687 2.09 4.687 4.68s-2.098 4.68-4.686 4.68zm29.117 0h-5.56c-2.59 0-4.687-2.098-4.687-4.686s2.098-4.686 4.686-4.686h5.56c2.59 0 4.687 2.098 4.687 4.686s-2.09 4.686-4.68 4.686z" fill="#FFF"/></svg>