<svg xmlns="http://www.w3.org/2000/svg" viewBox="0 0 200 200"><path fill="#A2C0D9" d="M99.604 197.79c-13.283 0-26.17-2.6-38.3-7.732-11.717-4.956-22.24-12.05-31.276-21.086s-16.13-19.56-21.086-31.276c-5.13-12.13-7.733-25.018-7.733-38.3s2.6-26.17 7.73-38.3c4.95-11.716 12.05-22.24 21.08-31.276S49.58 13.69 61.3 8.733C73.433 3.603 86.32 1 99.603 1s26.17 2.602 38.3 7.733c11.72 4.956 22.24 12.05 31.278 21.086 9.04 9.03 16.13 19.55 21.09 31.27 5.13 12.13 7.73 25.02 7.73 38.3s-2.6 26.17-7.73 38.3c-4.95 11.71-12.05 22.24-21.08 31.27-9.037 9.03-19.56 16.13-31.277 21.08-12.13 5.133-25.014 7.734-38.3 7.734zm0-194.306c-25.62 0-49.704 9.976-67.82 28.092-18.115 18.115-28.09 42.2-28.09 67.82s9.975 49.704 28.09 67.82c18.116 18.115 42.202 28.092 67.82 28.092s49.705-9.976 67.82-28.092c18.116-18.115 28.093-42.2 28.093-67.82s-9.976-49.704-28.092-67.82C149.31 13.46 125.223 3.484 99.605 3.484z"/><path d="M75.213 177.307c-.344 1.022-1.275 1.44-2.246 1.115-.987-.332-1.46-1.224-1.115-2.246.344-1.022 1.264-1.464 2.25-1.132.972.327 1.455 1.24 1.11 2.263zM57.41 161.675l.218 4.33.124.076 2.19 1.36 1.878-3.03 2.516 1.56-6.742 10.88-4.706-2.92c-2.905-1.8-3.788-4.43-2.276-6.87 1.01-1.63 2.576-2.31 4.365-2.04l-.27-5.003 2.702 1.676zm-3.11 10.287l2.05 1.27 2.35-3.79-2.05-1.27c-1.54-.954-2.758-.72-3.49.46-.742 1.195-.4 2.376 1.14 3.33zm-10.293-4.365l-2.267-1.904 8.227-9.798 2.268 1.904-8.228 9.79zm2.505-12.92l-2.324.76c-.147-1.325-.828-2.883-1.863-4.016-1.184-1.29-2.096-1.42-2.677-.89-1.768 1.62 4.465 6 .957 9.21-1.606 1.47-4.125 1.4-6.58-1.29-1.084-1.184-1.91-2.66-2.16-4.04l2.277-.84c.302 1.33.885 2.458 1.65 3.295 1.184 1.296 2.126 1.35 2.72.81 1.74-1.59-4.48-5.986-1.012-9.155 1.58-1.446 4.124-1.37 6.59 1.33 1.37 1.5 2.305 3.415 2.422 4.844zM31.647 142.21l2.43.504 2.74-1.72 1.565 2.492-10.836 6.802-1.565-2.492 5.07-3.178-8.07-1.62-1.75-2.787 7.65 1.46 3.02-8.52 1.84 2.93-2.08 6.14zm-13.97-17.185l3.237-.975-1.708-5.67 2.275-.686 1.71 5.67 4.47-1.343.86 2.84-12.25 3.69-2.784-9.26 2.273-.68 1.935 6.43zM24.2 104.46l-3.265 2.85.016.146.29 2.56 3.54-.397.33 2.94-12.71 1.43-.61-5.51c-.38-3.4 1.14-5.72 4-6.04 1.91-.22 3.417.59 4.31 2.16l3.766-3.31.355 3.16zm-10.005 3.92l.27 2.397 4.43-.498-.268-2.4c-.202-1.8-1.14-2.61-2.52-2.46-1.398.15-2.114 1.15-1.912 2.95zm8.045-20.322l2.37.166-.69 9.882-12.762-.892.674-9.645 2.37.16-.47 6.71 2.772.19.414-5.93 2.297.16-.415 5.93 2.954.2.486-6.95zm3.08-13.422l2.305.58-2.415 9.608-12.41-3.12 2.357-9.377 2.305.58-1.64 6.523 2.695.677 1.448-5.762 2.234.56-1.45 5.763 2.87.722 1.69-6.754zm-1.696-16.01l-1.978 3.585-2.112-1.16 5.386-9.76 2.112 1.17-1.978 3.59 9.09 5.017-1.43 2.59-9.09-5.013zm19.166-9.7l-4.323-.33-.092.115-1.624 2.01 2.77 2.25-1.86 2.3-9.93-8.06 3.49-4.3c2.15-2.65 4.88-3.2 7.11-1.39 1.49 1.21 1.975 2.85 1.48 4.59l5 .36-2.002 2.47zm-9.813-4.384l-1.52 1.874 3.463 2.81 1.52-1.874c1.14-1.405 1.063-2.645-.016-3.52-1.093-.887-2.307-.695-3.447.71zm5.625-9.658l2.174-2.01 8.686 9.394-2.174 2.01-8.686-9.394zm19.38-2.487l-4.904 3.35.61 2.904-2.504 1.72-2.51-13.78 2.415-1.65 11.94 7.34-2.57 1.76-2.48-1.625zm-2.038-1.33l-4.438-2.9 1.088 5.188 3.35-2.29zm4.136-11.42l2.703-1.205 4.23 9.48 5.858-2.612.99 2.203-8.56 3.82-5.21-11.685zm20.445-.7c-.23-1.055.357-1.893 1.357-2.11 1.018-.22 1.88.303 2.108 1.357.23 1.054-.335 1.906-1.353 2.126-1 .218-1.884-.32-2.112-1.374zm14.855.843c.252 2.143-1.17 4.297-4.783 4.72-1.78.208-3.67-.067-5.006-.794l.88-2.385c1.05.62 2.44.88 3.77.72 1.47-.17 2.31-.87 2.19-1.91-.11-.96-.89-1.48-2.56-1.28l-1.34.16-.22-1.94 2.27-3.26-5.41.638-.275-2.36 8.895-1.042.22 1.908-2.485 3.605c2.33.094 3.654 1.373 3.873 3.243zm2.632-3.74l5.172.084-.037 2.285-5.172-.09.037-2.29zm21.49-3.174l-1.966 12.642-2.402-.374-5.11-8.656-1.193 7.675-2.89-.45 1.97-12.64 2.42.375 5.09 8.653 1.2-7.67 2.89.45zm4.873 1.43l2.833.863-3.724 12.24-2.833-.87 3.73-12.24zm12.88 11.638l2.457 1.133-2.174 4.714c-1.722.38-3.72.08-5.378-.68-3.65-1.68-5.185-5.43-3.57-8.93 1.615-3.5 5.46-4.76 9.16-3.06 2.043.94 3.414 2.42 3.938 4.25l-2.46.8c-.434-1.28-1.222-2.15-2.4-2.69-2.257-1.043-4.497-.244-5.515 1.963-1.003 2.174-.17 4.43 2.053 5.455.73.337 1.472.518 2.32.466l1.57-3.4zm19.14 5.018l-7.472 10.386-2.404-1.73 3.06-4.258-4.72-3.395-3.07 4.258-2.41-1.73 7.47-10.386 2.404 1.73-2.948 4.095 4.715 3.395 2.95-4.095 2.403 1.73zm4.113 7.208l-2.862-2.928 1.725-1.687 7.8 7.97-1.72 1.688-2.86-2.927-7.42 7.257-2.07-2.117 7.42-7.257zM163 54.88l2.427-.302c-.11 1.33.258 2.99 1.057 4.3.913 1.5 1.783 1.803 2.455 1.394 2.04-1.246-3.23-6.743.82-9.216 1.86-1.132 4.31-.574 6.21 2.532.83 1.374 1.36 2.978 1.34 4.383l-2.4.39c-.04-1.36-.4-2.58-.99-3.55-.91-1.5-1.828-1.73-2.515-1.31-2.01 1.23 3.25 6.74-.764 9.18-1.826 1.12-4.31.55-6.21-2.57-1.055-1.73-1.605-3.79-1.445-5.21zm17.19 6.86l1.138 2.733-9.586 3.987 2.464 5.924-2.228.927-3.6-8.65 11.813-4.91zm-3.06 24.423l-2.31.557-2.323-9.63 12.438-3.002 2.268 9.4-2.31.557-1.578-6.54-2.7.653 1.392 5.775-2.24.54-1.392-5.775-2.88.695 1.636 6.77zm1.11 12.76l-2.37.174-.718-9.88 12.76-.928.7 9.64-2.37.17-.487-6.71-2.77.2.43 5.92-2.297.16-.43-5.925-2.954.215.507 6.944zm4.642 14.517c-2.838-.274-4.398-2.573-4.07-5.976l.25-2.565-3.513-.34.28-2.95 12.73 1.23-.54 5.51c-.33 3.4-2.3 5.36-5.158 5.08zm.288-2.984c1.4.135 2.308-.695 2.48-2.497l.233-2.41-4.42-.43-.233 2.4c-.174 1.8.557 2.79 1.94 2.92zm-7.043 20.39l-.938 2.536-4.87-1.8c-.51-1.686-.37-3.7.26-5.414 1.39-3.77 5.01-5.592 8.62-4.255s5.18 5.07 3.76 8.893c-.78 2.11-2.145 3.59-3.93 4.256l-.987-2.39c1.25-.533 2.05-1.386 2.5-2.603.86-2.34-.11-4.51-2.39-5.35-2.247-.83-4.43.17-5.28 2.47-.28.75-.4 1.51-.283 2.35l3.516 1.3zm-3.5 5.622l6.13 3.708-1.53 2.533-6.038-3.66c-2.08-1.26-3.49-.87-4.42.66-.94 1.55-.62 2.96 1.46 4.22l6.03 3.65-1.518 2.5-6.13-3.71c-3.223-1.95-3.89-4.88-2.007-7.99 1.882-3.11 4.78-3.88 8.003-1.93zm-16.047 17.32l3.956-4.432-1.29-2.67 2.02-2.265 5.748 12.78-1.947 2.18-13.355-4.25 2.07-2.32 2.798.98zm2.298.802l5.006 1.748-2.304-4.775-2.702 3.027zm-14.79 6.403l4.136 1.3.115-.09 2.03-1.582-2.19-2.81 2.34-1.81 7.85 10.11-4.38 3.4c-2.7 2.1-5.48 2.01-7.24-.255-1.178-1.515-1.277-3.22-.4-4.805l-4.79-1.485 2.51-1.95zm8.565 6.492l1.905-1.48-2.737-3.522-1.9 1.48c-1.43 1.11-1.63 2.336-.78 3.433.87 1.11 2.09 1.2 3.52.09zm-19.198 2.925l5.273-2.734-.256-2.956 2.693-1.397.83 13.983-2.597 1.346-10.97-8.723 2.76-1.44 2.267 1.91zm1.863 1.567l4.056 3.414-.454-5.28-3.602 1.87zm-15.904 13.958l-3.615-12.272 2.33-.687 8.31 5.65-2.2-7.452 2.8-.826 3.61 12.272-2.35.692-8.297-5.654 2.195 7.45-2.806.827zm-8.226-1.183l4.068-.458.27 2.397-11.08 1.25-.27-2.39 4.07-.45-1.162-10.314 2.942-.33 1.162 10.316zm-19.952-7.606l.104-2.374 9.897.435-.562 12.782-9.66-.43.104-2.38 6.72.29.12-2.78-5.94-.26.1-2.3 5.93.26.13-2.96-6.96-.305zm-12.58-2.46l.49-2.325 9.692 2.05-2.638 12.52-9.46-1.99.49-2.32 6.58 1.38.574-2.714-5.812-1.224.475-2.254 5.812 1.224.61-2.9-6.82-1.437z" fill="#A2C0D9"/><g fill="#FFF"><path d="M100.81 145.96c-25.085 0-45.494-20.358-45.494-45.38 0-18.24 10.87-34.635 27.69-41.773.54-.228 1.16-.106 1.57.307.41.413.532 1.035.302 1.57-2.25 5.26-3.39 10.86-3.39 16.64 0 23.448 19.127 42.523 42.637 42.523 5.798 0 11.413-1.138 16.688-3.382.538-.23 1.16-.108 1.57.305.413.413.534 1.035.305 1.57-7.157 16.78-23.594 27.62-41.877 27.62zM80.966 62.932c-13.95 7.307-22.79 21.73-22.79 37.647 0 23.44 19.127 42.52 42.637 42.52 15.96 0 30.42-8.81 37.745-22.73-4.628 1.54-9.467 2.33-14.43 2.33-25.087 0-45.496-20.36-45.496-45.38 0-4.95.784-9.78 2.335-14.4zM133.8 74.386c-.03 0-.057 0-.086-.003-.778-.046-1.377-.707-1.344-1.486.01-.234.032-2.347-2.14-4.512-2.248-2.244-4.803-2.496-5.087-2.518-.778-.06-1.364-.73-1.32-1.51.047-.778.713-1.37 1.487-1.344l.084.002c.54 0 2.457-.154 4.445-2.136 2.24-2.25 2.5-4.79 2.52-5.08.06-.78.72-1.37 1.51-1.32.77.04 1.37.7 1.34 1.48-.01.23-.03 2.343 2.14 4.51 2.25 2.24 4.8 2.493 5.08 2.515.78.06 1.36.73 1.32 1.51-.05.78-.72 1.38-1.49 1.346l-.088-.002c-.54 0-2.457.155-4.445 2.14-2.2 2.193-2.488 4.61-2.523 5.07-.06.75-.685 1.32-1.427 1.32zm-3.954-9.878c.79.46 1.612 1.065 2.403 1.854.68.678 1.2 1.36 1.61 2.014.46-.79 1.07-1.614 1.86-2.406.67-.676 1.35-1.2 2.01-1.605-.79-.46-1.61-1.065-2.4-1.854-.68-.67-1.21-1.35-1.62-2.01-.47.79-1.07 1.62-1.87 2.41-.678.68-1.358 1.2-2.01 1.61z"/><path d="M103.68 77.933c-.028 0-.055 0-.084-.003-.778-.045-1.377-.705-1.346-1.484.005-.12.013-1.217-1.17-2.398-1.26-1.256-2.663-1.395-2.818-1.407-.778-.05-1.365-.73-1.32-1.5.045-.78.716-1.37 1.486-1.34h.003c.24 0 1.3-.06 2.41-1.17 1.26-1.25 1.4-2.65 1.41-2.8.06-.777.72-1.362 1.51-1.316.78.046 1.38.708 1.35 1.487 0 .12-.01 1.214 1.17 2.396 1.26 1.255 2.67 1.394 2.82 1.405.78.06 1.37.73 1.32 1.51-.04.78-.73 1.378-1.48 1.346-.24 0-1.295.06-2.405 1.166-1.26 1.257-1.397 2.65-1.41 2.807-.055.75-.68 1.32-1.423 1.32zm-1.493-6.694c.305.22.61.48.912.78.22.22.42.45.6.67.22-.31.49-.62.79-.92.22-.22.44-.42.67-.6-.31-.23-.61-.49-.91-.79-.23-.224-.43-.45-.61-.674-.23.31-.49.617-.79.92-.22.22-.45.42-.67.594zm26.016 33.67c-.028 0-.056 0-.085-.01-.78-.05-1.377-.71-1.344-1.49.01-.21.028-2.107-1.934-4.065-2.04-2.035-4.352-2.264-4.61-2.283-.777-.06-1.363-.73-1.318-1.51.046-.78.72-1.378 1.486-1.346h.073c.49 0 2.22-.14 4.01-1.93 2.04-2.038 2.27-4.337 2.29-4.593.06-.776.72-1.36 1.51-1.32.78.05 1.38.71 1.35 1.49-.01.21-.02 2.104 1.94 4.062 2.04 2.035 4.35 2.264 4.61 2.283.78.06 1.37.73 1.32 1.51-.043.78-.71 1.373-1.483 1.343h-.073c-.485 0-2.21.14-4.007 1.93-2.04 2.04-2.27 4.34-2.29 4.6-.06.75-.68 1.32-1.424 1.32zm-3.418-9.21c.685.41 1.392.95 2.074 1.622.57.574 1.03 1.15 1.39 1.71.42-.683.95-1.387 1.64-2.07.57-.575 1.15-1.03 1.71-1.393-.69-.416-1.4-.948-2.08-1.627-.58-.572-1.04-1.15-1.4-1.712-.42.687-.958 1.394-1.64 2.077-.58.574-1.156 1.03-1.716 1.392z"/></g><text transform="translate(-256.163 3155.158)" font-family="'Montserrat-Bold'" font-size="63.937" letter-spacing="5">Lorem ipsum</text></svg>