<svg xmlns="http://www.w3.org/2000/svg" viewBox="0 0 380 60"><path fill="#69d7f8" d="M42.563 20.51L33.543 0l-9.01 20.51L2 22.917l.002.002L2 22.91h.003l16.96 14.73L14.048 60l19.497-11.758L53.043 60l-4.907-22.352L65.1 22.918h.003-.002.01m55.36-2.408L111.44 0l-9.012 20.51-22.532 2.407.002.002-.002-.01h.002l16.96 14.73L91.944 60l19.497-11.758L130.94 60l-4.91-22.352 16.966-14.73H143h-.004.003m55.35-2.408L189.33 0l-9.01 20.51-22.53 2.407.005.002-.003-.01h.004l16.96 14.73L169.84 60l19.496-11.758L208.834 60v-.002V60v-.002l-4.908-22.35 16.965-14.73h.016m55.354-2.408L267.23 0l-9.01 20.51-22.533 2.407.003.002-.003-.01h.003l16.958 14.73L247.735 60l19.497-11.758L286.728 60v-.003l.002.003-.002-.003-4.907-22.35 16.97-14.727.01-.004h-.002.004m77.894 0l-22.54-2.406L345.126 0l-9.01 20.51-22.533 2.407.002.002-.002-.01h.002l16.96 14.73L325.63 60l19.498-11.758L364.624 60v-.003l.002.003-.003-.003-4.906-22.35 16.965-14.728.002-.01h-.002"/></svg>