<svg viewBox="0 0 150 150" xmlns="http://www.w3.org/2000/svg"><path clip-rule="evenodd" d="m35.4 81.328 27.307 28.716s12.616 14.51 21.967.014c4.87-7.55 16.522-26.103 26.655-43.963 24.38-42.964 36.95-55.657 36.95-55.657-9.82-5.61-29.28 6.846-44.32 29.822-7.246 11.065-22.66 34.95-28.1 43.385-1.23 1.91-2.77 2.218-4.08.905-4.086-4.09-12.96-13.06-16.858-17.664-.83-.98-2.15-2.366-2.79-3.077-1.644-1.84-4.734-2.16-7.018-.63-1.268.84-2.486 1.97-3.647 3.03-2.636 2.42-5.362 4.89-7.143 7.19-1.888 2.43-1.96 5.253 1.06 7.917z" fill="#4e4e4e" fill-rule="evenodd"/><path d="m130.35 45.174c4.685 8.777 7.352 18.79 7.352 29.413 0 34.552-28.11 62.66-62.66 62.66-34.552 0-62.66-28.11-62.66-62.66s28.108-62.66 62.66-62.66c13.06 0 25.195 4.02 35.244 10.884 2.697-2.97 5.45-5.66 8.214-8.01-12.21-8.901-27.225-14.171-43.458-14.171-40.782 0-73.957 33.177-73.957 73.957s33.175 73.957 73.957 73.957c40.78 0 73.958-33.177 73.958-73.957 0-14.73-4.348-28.456-11.8-39.996-2.073 3.1-4.357 6.62-6.85 10.59z" fill="#bfa354"/></svg>