<svg viewBox="0 0 100 100" xmlns="http://www.w3.org/2000/svg"><path d="m93.442 50c0 23.942-19.45 43.35-43.44 43.35s-43.444-19.408-43.444-43.35c.002-23.94 19.45-43.35 43.442-43.35s43.442 19.41 43.442 43.35"/><path d="m50 100c-27.57 0-50-22.43-50-50s22.43-50 50-50 50 22.43 50 50-22.43 50-50 50zm0-86.7c-20.337 0-36.882 16.464-36.882 36.7 0 20.235 16.545 36.7 36.882 36.7s36.883-16.465 36.883-36.7c0-20.236-16.546-36.7-36.883-36.7z" fill="#fff"/><path d="m30.766 45.368h-3.76v-.86c0-.873-.203-1.627-.61-2.263-.405-.635-1.087-.952-2.045-.952-.51 0-.93.098-1.25.3-.32.2-.58.447-.77.747-.19.324-.33.69-.4 1.102-.07.41-.11.843-.11 1.29 0 .524.02.96.06 1.31s.13.66.278.934c.146.273.36.51.644.71.283.2.67.398 1.16.598l2.878 1.16c.84.323 1.517.703 2.03 1.14.52.436.925.94 1.22 1.512.27.6.454 1.28.553 2.04.096.76.146 1.625.146 2.597 0 1.12-.11 2.163-.333 3.122-.22.96-.576 1.776-1.07 2.45-.515.697-1.19 1.245-2.025 1.644-.835.39-1.855.59-3.06.59-.91 0-1.757-.16-2.543-.49-.787-.33-1.46-.78-2.028-1.35-.568-.576-1.017-1.24-1.348-2-.33-.76-.492-1.59-.492-2.49v-1.409h3.76v1.2c0 .7.205 1.33.61 1.89.406.56 1.088.843 2.046.843.64 0 1.137-.095 1.494-.282.356-.18.63-.45.83-.8.196-.35.31-.76.35-1.25.036-.48.055-1.03.055-1.63 0-.69-.025-1.27-.076-1.72-.05-.44-.15-.81-.297-1.08-.17-.27-.4-.5-.68-.67s-.66-.36-1.124-.56l-2.69-1.12c-1.62-.67-2.71-1.56-3.265-2.67-.553-1.104-.83-2.5-.83-4.17 0-.992.135-1.94.407-2.84.27-.893.675-1.67 1.216-2.314.515-.65 1.17-1.17 1.97-1.555s1.75-.58 2.86-.58c.933 0 1.79.176 2.562.525.776.35 1.444.81 2.01 1.382 1.13 1.195 1.697 2.568 1.697 4.11v1.87zm1.99 18.955v-26.62h3.76v22.807h7.45v3.813m1.62 0v-26.62h11.21v3.59h-7.45v7.814h6.49v3.588h-6.49v7.814h7.45v3.81m1.62 0v-26.619h11.21v3.59h-7.45v7.816h6.49v3.588h-6.49v7.814h7.45v3.812m1.622 0v-26.62h5.64c1.032 0 1.943.14 2.728.413.786.275 1.5.76 2.14 1.458.638.7 1.08 1.52 1.327 2.45.246.94.37 2.21.37 3.8 0 1.2-.07 2.21-.204 3.03-.14.82-.43 1.6-.87 2.32-.52.87-1.21 1.55-2.07 2.04s-1.99.73-3.39.73h-1.919v10.39h-3.76zm3.76-23.03v9.048h1.805c.762 0 1.353-.113 1.77-.337.42-.22.725-.53.923-.93.195-.37.312-.83.35-1.38.035-.54.055-1.15.055-1.83 0-.62-.01-1.21-.03-1.77s-.13-1.05-.33-1.475c-.19-.423-.49-.747-.88-.97-.39-.225-.96-.34-1.69-.34h-1.96z" fill="#c6a254"/><path d="m24.79 30.05 2.678-3.025.43.394-2.255 2.54 1.483 1.35 2.017-2.28.428.39-2.01 2.28 1.81 1.64-.42.47m2.18-4.67-1.58-2.03.48-.39 1.495 1.914c.474.61 1.095.73 1.665.27.55-.44.65-1.19.17-1.8l-1.47-1.875.474-.38 2.552 3.277-.476.38-.445-.57c.057.53-.05 1.08-.608 1.524-.78.627-1.65.46-2.26-.32m1.65-6.586.52-.33 3.064 5.02-.52.33m-1.153-6.155.546-.29 2.72 5.22-.543.29m2.91-2.353.243-.562c.71.342 1.318.44 2.06.216.72-.22 1.08-.75.92-1.28l-.003-.02c-.147-.51-.5-.71-1.694-.62-1.31.1-1.995-.13-2.256-1.023-.25-.854.31-1.706 1.328-2.01.78-.236 1.406-.178 2.078.1l-.213.578c-.62-.26-1.17-.29-1.72-.125-.698.21-1.03.73-.886 1.22l.004.02c.15.51.51.72 1.764.62 1.27-.09 1.95.19 2.19 1.01l.005.02c.27.93-.316 1.77-1.38 2.088-.847.256-1.627.178-2.44-.21m4.526-4.71.61-.067.09.837c.28-.534.716-1.015 1.47-1.1.98-.112 2.04.567 2.19 1.93l.005.018c.15 1.36-.726 2.27-1.72 2.38-.76.09-1.294-.27-1.665-.7l.23 2.08-.61.07-.6-5.44zm3.74 1.693-.002-.014c-.108-.98-.842-1.532-1.618-1.443-.76.086-1.41.82-1.31 1.767v.012c.106.964.9 1.525 1.66 1.44.79-.09 1.374-.757 1.265-1.76m1.413-.07v-.01c.063-1.203.952-2.124 2.09-2.06 1.213.07 1.86 1.09 1.793 2.31-.005.08-.008.127-.02.2l-3.26-.184c.036.91.64 1.45 1.37 1.493.565.03.975-.18 1.33-.52l.36.37c-.44.444-.96.73-1.74.69-1.13-.066-2.005-.996-1.935-2.285m3.28-.06c-.023-.76-.417-1.445-1.236-1.49-.713-.04-1.29.533-1.412 1.344l2.65.15zm1.327.39.004-.017c.245-1.156 1.34-1.94 2.52-1.687.764.17 1.17.594 1.46 1.08l-.49.34c-.247-.41-.546-.766-1.093-.88-.82-.18-1.59.39-1.778 1.27l-.007.01c-.185.886.306 1.73 1.147 1.91.513.11.97-.062 1.36-.34l.304.446c-.504.37-1.057.6-1.813.43-1.18-.25-1.86-1.42-1.62-2.564m4.44 2.1.84-2.372-.543-.2.183-.517.54.196.416-1.188.58.21-.42 1.19 1.23.443-.18.52-1.23-.444-.81 2.3c-.17.48.032.75.422.89.19.07.37.09.61.066l-.18.503c-.24.03-.48.014-.757-.087-.62-.224-.984-.71-.702-1.51m3.913-1.76.553.27-.47.98c.57-.493 1.326-.68 2.016-.306l-.29.6-.04-.02c-.81-.4-1.75-.132-2.29 1.003l-.72 1.5-.553-.27 1.795-3.764zm1.57 3.66 1.416-2.163.51.343-1.33 2.036c-.42.645-.34 1.28.263 1.69.583.39 1.315.254 1.74-.4l1.31-1.995.502.34-2.273 3.484-.507-.34.4-.605c-.48.22-1.03.29-1.62-.11-.833-.56-.95-1.45-.405-2.28m5.873.895.43.446-.49.49c.48-.09 1.003-.09 1.49.412.464.488.51 1.055.334 1.544.53-.11 1.1-.05 1.6.47.66.687.615 1.56-.115 2.282l-1.82 1.81-.426-.442 1.72-1.704c.57-.565.61-1.17.143-1.655-.434-.45-1.12-.492-1.704.08l-1.7 1.68-.43-.45 1.734-1.716c.55-.55.592-1.166.136-1.64s-1.19-.45-1.73.086l-1.69 1.66-.43-.45 2.95-2.915zm-38.966 41.191.46.44-1.71 1.826 2.343 2.24 1.706-1.823.45.44-3.85 4.11-.46-.44 1.73-1.85-2.34-2.25-1.73 1.85-.457-.44m5.72 2.42.005-.013c.64-1.018 1.86-1.38 2.82-.757 1.03.664 1.094 1.88.45 2.91-.04.064-.07.105-.118.162l-2.755-1.78c-.41.81-.148 1.584.47 1.983.48.306.94.325 1.41.21l.14.5c-.6.17-1.19.16-1.85-.266-.95-.62-1.264-1.866-.578-2.955m2.89 1.583c.35-.677.34-1.47-.354-1.917-.6-.392-1.38-.18-1.88.467zm2.147-.768.58.21-.24.66c.394-.296.866-.527 1.518-.29.63.23.912.72.965 1.24.438-.333.97-.532 1.647-.285.89.327 1.222 1.135.875 2.107l-.867 2.435-.576-.21.815-2.3c.273-.76.05-1.32-.58-1.56-.585-.214-1.22.05-1.498.828l-.808 2.266-.58-.213.824-2.31c.263-.74.035-1.31-.58-1.535-.616-.225-1.264.12-1.52.845l-.8 2.243-.575-.21 1.396-3.93zm6.906 2.252.61.073-.096.834c.39-.46.92-.83 1.67-.74.98.11 1.867 1.02 1.71 2.38v.02c-.154 1.36-1.212 2.05-2.202 1.93-.76-.09-1.205-.56-1.47-1.064l-.235 2.08-.61-.073.618-5.434zm3.275 2.5v-.014c.11-.98-.48-1.687-1.26-1.776-.76-.084-1.555.48-1.66 1.43l-.01.016c-.11.965.54 1.69 1.3 1.78.79.094 1.51-.424 1.62-1.43m3.73-3.56 2.35-.38c.63-.1 1.158 0 1.52.26.27.205.44.48.5.84v.02c.116.726-.265 1.173-.67 1.435.685.094 1.275.39 1.395 1.158l.005.018c.154.96-.552 1.66-1.76 1.85l-2.446.4-.884-5.59zm3.75.91c-.087-.55-.577-.84-1.364-.712l-1.677.27.303 1.925 1.63-.267c.75-.12 1.214-.55 1.11-1.207v-.02zm-.91 1.76-1.74.285.313 1.973 1.85-.303c.838-.137 1.298-.597 1.2-1.22v-.015c-.097-.606-.657-.875-1.618-.72m2.222-3.933.587-.182 1.71 5.64-.587.182m1.077-2.478-.005-.02c-.48-1.1-.104-2.33.94-2.797 1.112-.5 2.147.11 2.635 1.226.035.08.05.12.076.19l-2.988 1.34c.44.79 1.22 1 1.89.7.513-.23.783-.61.95-1.07l.49.162c-.197.6-.53 1.094-1.24 1.415-1.04.46-2.23.032-2.75-1.15m2.896-1.563c-.36-.67-1.02-1.1-1.77-.76-.66.29-.91 1.07-.66 1.845l2.428-1.09zm.52-2.37.51-.345.4.6c-.025-.53.133-1.073.723-1.47.83-.56 1.685-.32 2.23.504l1.42 2.16-.51.345-1.337-2.03c-.426-.65-1.036-.82-1.64-.41-.59.4-.74 1.13-.31 1.782l1.308 1.99-.51.345-2.283-3.472zm5.066-.987-.01-.012c-.936-.98-.784-2.25-.074-2.95.55-.536 1.19-.582 1.74-.47l-1.723-1.81.44-.43 4.04 4.242-.44.43-.576-.607c.1.6.045 1.25-.5 1.78-.71.7-1.957.82-2.898-.17m2.56-2.52-.01-.01c-.66-.69-1.628-.64-2.178-.1-.573.56-.63 1.45.06 2.18l.01.01c.676.71 1.595.69 2.15.14.55-.54.625-1.52-.034-2.21" fill="#fff"/></svg>