<svg viewBox="0 0 200 200" xmlns="http://www.w3.org/2000/svg"><path d="m81.334 149.354c-7.144 0-14.288-2.72-19.727-8.158-10.877-10.878-10.877-28.577 0-39.454l43.984-43.985c10.88-10.877 28.58-10.877 39.46 0 10.88 10.878 10.88 28.577 0 39.454l-43.98 43.99c-5.43 5.44-12.58 8.16-19.72 8.16zm43.984-95.763c-6.382 0-12.382 2.49-16.895 7l-43.983 43.989c-4.514 4.513-7 10.513-7 16.895 0 6.38 2.486 12.38 7 16.894 4.512 4.51 10.512 6.99 16.894 6.99s12.382-2.488 16.895-7l43.98-43.987c4.51-4.514 7-10.514 7-16.896 0-6.38-2.49-12.38-7-16.896s-10.51-7-16.9-7z" fill="#fff"/><path d="m130.173 63.358c-.175 0-.354-.023-.53-.072-.358-.098-.724-.183-1.09-.253-1.086-.208-1.798-1.256-1.59-2.342.207-1.08 1.255-1.79 2.34-1.59.47.09.94.2 1.4.33 1.065.3 1.693 1.4 1.4 2.46-.244.89-1.05 1.48-1.93 1.48zm-31.253 19.702c-.51 0-1.024-.197-1.415-.587-.782-.782-.782-2.05 0-2.832l15.55-15.55c1.852-1.85 4.025-3.25 6.458-4.16 1.036-.39 2.19.14 2.577 1.18.388 1.04-.138 2.19-1.173 2.58-1.894.71-3.586 1.8-5.03 3.25l-15.55 15.55c-.39.39-.903.59-1.416.59zm-1.2-30.035c-1.106 0-2.002-.896-2.002-2.002v-16.285c0-1.106.896-2.002 2.002-2.002s2.002.896 2.002 2.002v16.285c0 1.105-.896 2.002-2.002 2.002zm0 108.655c-1.106 0-2.002-.896-2.002-2.002v-8.276c0-1.106.896-2.002 2.002-2.002s2.002.896 2.002 2.002v8.276c0 1.106-.896 2.002-2.002 2.002zm-29.3-91.636c-.512 0-1.025-.196-1.416-.586l-13.172-13.173c-.782-.782-.782-2.05 0-2.832s2.05-.782 2.832 0l13.172 13.172c.782.782.782 2.05 0 2.832-.39.39-.903.587-1.416.587zm-20.756-20.757c-.512 0-1.025-.196-1.416-.586l-2.07-2.06c-.78-.78-.78-2.05 0-2.83.783-.78 2.05-.78 2.833 0l2.07 2.07c.79.78.79 2.05 0 2.83-.39.4-.9.59-1.41.59zm100.312 104.05c-.51 0-1.018-.193-1.41-.58l-13.68-13.55c-.787-.777-.793-2.045-.015-2.83.78-.787 2.05-.793 2.84-.015l13.68 13.55c.79.777.79 2.045.02 2.83-.39.397-.9.595-1.42.595zm-89.5-67.742c-.27 0-.547-.055-.81-.172l-13.88-6.14c-1.013-.447-1.47-1.63-1.023-2.64.447-1.012 1.63-1.47 2.64-1.022l13.883 6.14c1.01.45 1.47 1.63 1.02 2.65-.33.75-1.063 1.2-1.83 1.2zm105.137 45.543c-.262 0-.527-.052-.783-.16l-17.306-7.368c-1.017-.433-1.49-1.61-1.058-2.626.433-1.017 1.61-1.49 2.627-1.058l17.306 7.367c1.01.433 1.49 1.61 1.05 2.626-.33.76-1.07 1.21-1.85 1.21zm-87.25-79.98c-.8 0-1.553-.48-1.863-1.27l-3.47-8.81c-.406-1.03.1-2.19 1.128-2.597 1.03-.4 2.192.1 2.597 1.13l3.47 8.81c.406 1.03-.1 2.2-1.128 2.6-.24.1-.49.14-.734.14zm47.272 108.002c-.696 0-1.373-.365-1.742-1.014l-6.158-10.827c-.547-.97-.21-2.19.75-2.73.96-.55 2.184-.22 2.73.75l6.158 10.82c.547.96.21 2.18-.75 2.73-.312.17-.652.26-.988.26zm-76.372-55.278h-8.543c-1.106 0-2.002-.896-2.002-2.002s.896-2.002 2.002-2.002h8.543c1.106 0 2.002.896 2.002 2.002s-.896 2.002-2.002 2.002zm114.797 0h-10.813c-1.106 0-2.002-.896-2.002-2.002s.896-2.002 2.002-2.002h10.812c1.1 0 2 .896 2 2.002s-.9 2.002-2 2.002zm-41.035 15.343c-.512 0-1.025-.196-1.416-.586l-35.9-35.9c-.79-.79-.79-2.05 0-2.84.78-.78 2.05-.78 2.83 0l35.9 35.9c.78.78.78 2.05 0 2.83-.39.39-.91.58-1.42.58zm-39.208 10.56-5.02 8.05 6.668-1.16c.54-.093.97-.037 1.288.17.318.205.512.507.582.906.066.39-.015.72-.243 1.01s-.616.48-1.165.58l-9.224 1.61c-.648.118-1.157.06-1.526-.17-.37-.23-.596-.58-.682-1.072-.05-.29.01-.602.184-.936.17-.333.54-.956 1.11-1.87.6-.96 1.15-1.83 1.64-2.61s.95-1.51 1.37-2.184c.42-.678.77-1.25 1.04-1.717.27-.466.49-.863.643-1.19l-5.06.88c-.7.12-1.238.15-1.616.088-.38-.06-.615-.36-.707-.89-.07-.39.01-.724.24-1.003.23-.274.596-.46 1.094-.55l7.818-1.354c.72-.126 1.294-.116 1.717.03.423.144.683.49.78 1.04.03.18.025.38-.016.586-.04.21-.097.383-.167.523s-.17.314-.297.52c-.127.21-.285.455-.474.745zm-10.73-5.21-6.943-4.952.668 6.046c.054.49-.02.87-.222 1.14s-.484.43-.846.47c-.347.04-.643-.05-.888-.28-.246-.22-.396-.58-.45-1.08l-.925-8.367c-.06-.586.02-1.04.24-1.36.23-.315.56-.5 1.01-.55.27-.03.54.045.83.22.29.172.83.54 1.62 1.1.83.596 1.58 1.136 2.25 1.623.67.49 1.3.94 1.89 1.355.584.416 1.078.76 1.48 1.03.405.27.75.488 1.03.647l-.505-4.588c-.07-.635-.07-1.12.01-1.456.076-.336.356-.53.84-.584.35-.04.65.053.886.275.237.22.38.56.43 1.01l.783 7.088c.07.655.03 1.17-.12 1.54-.154.372-.48.585-.977.64-.165.02-.34.003-.524-.045s-.335-.107-.46-.177c-.12-.07-.27-.17-.45-.292-.18-.127-.39-.28-.64-.468zm5.943-22.83-.126 8.103 4.368-3.786c.354-.307.692-.455 1.016-.445s.6.146.825.407c.217.25.305.53.265.842-.04.31-.24.623-.6.934l-6.04 5.237c-.425.368-.822.55-1.192.547s-.694-.166-.973-.487c-.165-.19-.258-.446-.28-.767-.02-.32-.023-.94-.008-1.858.018-.97.036-1.847.054-2.635.01-.788.03-1.522.04-2.203.01-.68.01-1.253 0-1.715-.01-.47-.03-.85-.05-1.16l-3.32 2.87c-.46.39-.84.65-1.15.77-.305.12-.608.01-.91-.34-.22-.26-.31-.54-.265-.85.044-.306.23-.6.556-.883l5.12-4.438c.473-.415.896-.66 1.27-.74.37-.08.715.06 1.026.42.103.12.186.262.25.432.06.17.095.324.11.46.01.133.01.303.01.51 0 .21-.006.46-.017.754zm13.872 27.597 4.523 4.724.36-4.652c.03-.377.14-.654.332-.832s.427-.256.705-.234c.267.02.477.132.63.333.154.21.215.5.186.88l-.5 6.44c-.034.46-.16.79-.373.99-.214.21-.492.3-.835.28-.203-.013-.4-.11-.595-.28-.194-.17-.547-.523-1.06-1.06-.538-.566-1.026-1.08-1.463-1.543-.436-.462-.845-.892-1.225-1.29-.38-.396-.703-.726-.97-.99-.264-.26-.493-.472-.685-.633l-.274 3.53c-.038.485-.11.85-.216 1.09s-.345.35-.716.32c-.272-.02-.482-.13-.63-.33s-.208-.475-.18-.823l.422-5.45c.04-.504.143-.885.312-1.144.17-.26.444-.375.827-.346.128.01.257.043.39.11.132.06.24.125.32.2.083.07.182.162.298.28.117.12.255.27.417.447zm-.777-15.917-2.697 9.097 6.12-2.892c.495-.234.923-.295 1.285-.18.362.113.63.353.802.72.166.35.177.694.034 1.032-.15.338-.47.626-.97.864l-8.47 4c-.6.28-1.1.36-1.52.24s-.73-.405-.95-.855c-.13-.26-.15-.58-.07-.95s.27-1.06.57-2.1c.327-1.08.624-2.07.893-2.95.27-.88.513-1.7.74-2.47.225-.76.41-1.41.55-1.93s.24-.96.304-1.32l-4.646 2.2c-.64.31-1.15.48-1.532.52-.38.04-.688-.18-.92-.67-.17-.36-.18-.7-.035-1.03.15-.33.45-.604.91-.82l7.172-3.39c.66-.313 1.22-.456 1.663-.43.446.03.79.293 1.026.796.08.17.125.36.14.57.016.21.01.394-.02.55-.03.153-.08.346-.147.58-.07.23-.157.51-.26.84zm9.235 8.302 5.864-7.084-6.556.25c-.53.02-.936-.088-1.215-.327-.28-.24-.426-.554-.44-.946-.015-.376.106-.687.362-.934.257-.247.654-.38 1.193-.402l9.068-.347c.637-.024 1.12.096 1.444.362.325.26.497.63.515 1.12.01.28-.088.58-.298.87-.21.3-.647.85-1.31 1.65-.705.84-1.345 1.61-1.92 2.29s-1.11 1.32-1.602 1.92c-.493.59-.9 1.1-1.225 1.51-.324.41-.582.765-.775 1.06l4.975-.19c.686-.027 1.207.014 1.563.123.356.11.544.423.564.946.015.385-.106.696-.363.935-.257.24-.63.37-1.12.387l-7.683.29c-.71.03-1.26-.054-1.64-.25-.39-.192-.59-.56-.61-1.1 0-.18.03-.365.09-.56.07-.194.14-.354.23-.48s.2-.28.35-.46c.15-.185.34-.4.56-.656zm-9.157-14.694-.435-9.478-4.833 4.74c-.39.383-.777.58-1.155.59-.38.012-.71-.127-.993-.416-.272-.28-.395-.6-.37-.97.023-.37.234-.75.632-1.14l6.68-6.56c.47-.46.92-.7 1.35-.73.43-.025.82.142 1.17.5.2.21.33.5.38.874.04.373.09 1.097.14 2.17.05 1.135.09 2.162.12 3.084.038.923.074 1.78.11 2.58.038.796.076 1.464.115 2.004.04.54.09.99.145 1.35l3.67-3.598c.506-.493.933-.823 1.28-.99.35-.16.71-.05 1.09.337.28.285.4.607.37.967s-.224.72-.586 1.07l-5.666 5.555c-.52.514-1 .83-1.43.95s-.84-.016-1.23-.414c-.13-.132-.24-.296-.324-.49-.085-.196-.138-.37-.16-.526-.02-.158-.04-.357-.05-.598-.014-.24-.024-.533-.03-.88z" fill="#fff"/><path d="m100.123 197.755c-13.213 0-26.03-2.588-38.1-7.692-11.654-4.93-22.122-11.987-31.11-20.975s-16.046-19.456-20.975-31.11c-5.104-12.07-7.692-24.887-7.692-38.1s2.588-26.03 7.692-38.1c4.93-11.654 11.987-22.122 20.975-31.11s19.457-16.046 31.11-20.976c12.07-5.104 24.887-7.692 38.1-7.692s26.03 2.588 38.1 7.692c11.655 4.93 22.123 11.987 31.11 20.975s16.047 19.456 20.976 31.11c5.1 12.07 7.69 24.888 7.69 38.1s-2.59 26.03-7.69 38.1c-4.93 11.654-11.99 22.122-20.98 31.11s-19.46 16.046-31.11 20.975c-12.07 5.105-24.89 7.693-38.1 7.693zm0-193.284c-25.483-.001-49.443 9.929-67.463 27.949-18.02 18.018-27.944 41.975-27.944 67.458s9.924 49.442 27.944 67.462 41.98 27.944 67.463 27.944 49.443-9.924 67.463-27.944 27.944-41.98 27.944-67.463-9.924-49.443-27.944-67.463-41.98-27.943-67.463-27.943z" fill="#a2c0d9"/></svg>