<svg enable-background="new 0 0 100 100" viewBox="0 0 100 100" xmlns="http://www.w3.org/2000/svg"><g fill="#515c8f"><path d="m75.3 95c-3.4 0-7.2-1.3-11-3.7-6-3.7-11.7-9.9-16-17.4s-6.9-15.5-7.1-22.6c-.3-7.6 2.1-13.2 6.8-15.9 4.6-2.7 10.7-1.9 17.1 2.1 6 3.7 11.7 9.9 16 17.4s6.9 15.5 7.1 22.6c.3 7.6-2.1 13.2-6.8 15.9-1.8 1.1-3.8 1.6-6.1 1.6zm-21.2-59.1c-1.9 0-3.6.4-5.1 1.3-4 2.3-6 7.3-5.8 14.1.2 6.7 2.7 14.4 6.8 21.6 4.2 7.2 9.6 13.2 15.3 16.7 5.7 3.6 11.2 4.3 15.1 2 4-2.3 6-7.3 5.8-14.1-.2-6.6-2.7-14.2-6.9-21.5-4.2-7.2-9.6-13.2-15.3-16.7-3.5-2.3-6.9-3.4-9.9-3.4z"/><path d="m67.3 84.7c-.5 0-1-.2-1.4-.4-4.2-3-8.4-7.9-11.8-13.7-3.6-6.2-5.8-12.8-6.1-18.1l2-.1c.2 4.9 2.3 11.2 5.8 17.2 3.2 5.6 7.2 10.2 11.2 13.1.1 0 .1.1.2.1v1.9z"/><path d="m34.1 92c-2.9 0-5.4-1-7.1-2.8-2.5-2.7-3-6.8-1.4-11.7 1.5-4.3 4.5-8.8 8.6-12.6 1.6-1.5 3.2-2.8 4.9-3.9l1.1 1.7c-1.6 1.1-3.2 2.3-4.6 3.7-3.8 3.6-6.7 7.8-8.1 11.8-1.4 4.1-1.1 7.5.9 9.6 1.3 1.4 3.2 2.1 5.7 2.1 4.9 0 11-2.9 16.2-7.9l1.4 1.5c-5.6 5.4-12.2 8.5-17.6 8.5z"/><path d="m26.7 69.3c-.6 0-1.1 0-1.7 0-8-.1-13.6-2.6-16.4-7.3-2.3-3.8-2.8-8.8-1.4-14.8 1-4.4 2.6-7.7 2.7-7.7l1.8.9s-1.5 3.1-2.5 7.3c-1.3 5.5-.9 10 1.1 13.3 2.5 4.1 7.5 6.3 14.8 6.4h1.6 2.9l.1 2c-1-.1-2-.1-3-.1z"/><path d="m79.1 47.8v-2c.1 0 .2-.1.3-.2 12.1-13.6 15-28.1 15-28.3 0-.1 0-.3-.1-.4s-.2-.1-.3-.1l-6.1 1.1 1.4-7.4c0-.1 0-.2-.1-.3s-.2-.1-.3-.1c-16.5-.5-30.3 4.9-42.1 16.3l-1.4-1.4c12.2-11.9 26.5-17.4 43.5-16.9.7 0 1.4.4 1.8.9.4.6.6 1.3.5 2l-.9 4.5 3.3-.6c.8-.1 1.6.1 2.1.7s.8 1.4.6 2.1c0 .2-3 15.3-15.5 29.3-.4.5-1 .8-1.7.8z"/><path d="m18.8 55.4c-.4 0-.9-.1-1.3-.2-1.7-.5-3.1-2-4.1-4l1.8-.8c.7 1.5 1.7 2.6 2.8 2.9.8.2 1.7.1 2.6-.5.4-.3 1.2-1.2 2.1-2.3 1.8-2.2 4.6-5.5 8.8-9.1 1.8-1.4 3.1-3.4 4.5-5.4 1-1.5 2-3 3.2-4.4l1.5 1.3c-1.2 1.4-2.2 2.8-3.1 4.3-1.5 2.2-2.9 4.3-4.7 5.8-4.1 3.5-6.8 6.7-8.6 8.8-1.2 1.4-1.9 2.3-2.6 2.7-.9.6-1.9.9-2.9.9z"/><path d="m7.2 49s-2.9-2.5-4.3-6.9c-2.3-7.1.9-13.2 4-17.1.5-.6 1.3-1 2.1-.9.9.1 1.6.6 1.9 1.4l2.6 5.7 5.2-5.2c.6-.6 1.4-.8 2.2-.7.8.2 1.4.7 1.8 1.4 0 0 1.2 2.9 1.3 6.8.1 5.2-1.7 9.7-5.2 13l-1.4-1.5c3.1-2.9 4.7-6.9 4.6-11.5-.1-3.5-1.1-6.1-1.1-6.1 0-.1-.1-.2-.3-.3-.1 0-.3 0-.3.1l-7.3 7.2-3.8-8.4c-.1-.1-.2-.2-.3-.2s-.3 0-.3.1c-2.8 3.5-5.8 9-3.7 15.3 1.2 3.8 3.7 6 3.7 6z"/><path d="m35.3 39.4-6.6-2.7c-.7-.3-1.2-.9-1.4-1.6s-.1-1.5.4-2.1c6.9-9.3 13.8-14.6 17.3-16.9 2-1.4 4.4-2.2 6.9-2.3l10.6-.5.1 2-10.6.5c-2.1.1-4.1.8-5.9 1.9-3.4 2.3-10.1 7.5-16.8 16.5-.1.1-.1.2-.1.3s.1.2.2.3l6.6 2.7z"/><path d="m34.7 86.1v-2h.1c.2-.1 6.9-1.6 12.5-7.4l1.5 1.4c-5.9 6.2-12.8 7.9-13.5 8-.3 0-.4 0-.6 0z"/><path d="m76.2 22.8c-1.8 0-3.3-1.5-3.3-3.3s1.5-3.3 3.3-3.3 3.3 1.5 3.3 3.3-1.5 3.3-3.3 3.3zm0-4.5c-.7 0-1.3.6-1.3 1.3s.6 1.3 1.3 1.3 1.3-.6 1.3-1.3-.6-1.3-1.3-1.3z"/></g></svg>