<svg enable-background="new 0 0 100 100" viewBox="0 0 100 100" xmlns="http://www.w3.org/2000/svg"><path d="m41.3 99.7c-.2 0-.4 0-.7-.1-.7-.2-1.3-.5-1.6-1.1-.7-1.2-.3-2.9.7-6.5.7-2.5 1.5-5.8 2.4-10.3-8.5 2.5-19.4 1.9-26.7-1.8l-1.7-.9 1.9-.9c3.6-1.7 8.3-2.7 13.2-2.8-10.8-5.8-19.4-14.6-24.4-25-.1-.1-.2-.3-.2-.3l-2.2-2.7 3.3 1.1c.2.1.7.1 1.2.2 3.3.6 11.5 1.9 22 9.3-5.8-12.7-8.1-26.6-6.3-37.9l.3-1.7 1.3 1.1c8.2 6.9 15 17.5 19.2 29.6 3.2-23.3 12.9-38.2 18.6-45.1.2-.2.3-.3.3-.4l1.8-3.3v3.8s.1.2.1.5c3.5 14.9 2.5 32-2.9 48.6 9-9.1 19.7-15.6 30-18.1l1.7-.4-.5 1.7c-3.3 11.1-11.5 22.6-22.3 31.4 12.6-2.1 21 .4 23.9 1.2.4.1.8.2.9.3l3.3.4-2.9 1.4s-.1.1-.3.2c-9 7.1-20.5 11.2-32.6 11.7 4.4 2.3 8.2 5.2 10.8 8.4l1.3 1.6h-2c-8.1.1-18.6-4.2-25-10.3-1.2 4.5-1.8 7.8-2.3 10.4-.8 3.8-1.1 5.6-2.3 6.4-.5.2-.9.3-1.3.3zm3.5-21-.3 1.7c-1 5.5-2.1 9.3-2.8 12.1-.6 2.4-1.2 4.6-.9 5 0 0 .1.1.3.1h.3c.5-.3.9-2.5 1.4-5.1.6-2.9 1.3-6.8 2.8-12.2l.5-1.7 1.2 1.3c5.4 5.8 14.7 10.2 22.5 10.8-3.2-3.2-7.6-6-12.6-8l-5.4-2.1 5.8.2c12.9.4 25.2-3.3 34.8-10.4-3.8-1.1-13-3.2-26.2-.1l-4.7 1.1 3.9-2.9c11.5-8.5 20.5-20 24.4-31.3-10.6 3.2-21.9 10.8-30.6 20.7l-3.6 4.1 1.9-5.1c8.5-22.7 6.8-41 4.7-50.6-6.1 7.7-15.6 23.4-17.9 47.7l-.5 5.4-1.4-5.2c-3.5-12.7-10.4-24.4-18.5-31.8-1.4 11.7 1.6 26 8.2 38.6l2.2 4.2-3.7-3c-11-8.9-20-10.7-23.9-11.4 5.6 10.7 15 19.4 26.8 24.8l5.1 2.3-5.5-.4c-5.2-.4-10.4.2-14.6 1.7 7.1 2.7 17.3 2.9 24.6.2z" fill="#515c8f"/></svg>