<svg enable-background="new 0 0 140 400" viewBox="0 0 140 400" xmlns="http://www.w3.org/2000/svg" xmlns:xlink="http://www.w3.org/1999/xlink"><clipPath id="a"><path d="m0 0h140v400h-140z"/></clipPath><path clip-path="url(#a)" d="m18.1 398.9c-9.3 0-17-7.4-17-16.5v-364.8c0-9.1 7.6-16.5 17-16.5h103.8c9.3 0 17 7.4 17 16.5v364.7c0 9.1-7.6 16.5-17 16.5h-103.8z" fill="#052a56"/><path clip-path="url(#a)" d="m18.1 398.9c-9.3 0-17-7.4-17-16.5v-364.8c0-9.1 7.6-16.5 17-16.5h103.8c9.3 0 17 7.4 17 16.5v364.7c0 9.1-7.6 16.5-17 16.5h-103.8z" fill="none" stroke="#fcfcfc" stroke-miterlimit="10" stroke-width="2.271"/><path clip-path="url(#a)" d="m120.8 45.9h-2.2c-1.9-6.8-8.2-11.8-15.8-11.8s-13.9 5-15.8 11.8h-4.2c-6 0-10.9 4.8-10.9 10.6 0 5.9 4.9 10.6 10.9 10.6h38c6 0 10.9-4.8 10.9-10.6.1-5.8-4.8-10.6-10.9-10.6" fill="#57bdde"/><path clip-path="url(#a)" d="m120.8 45.9h-2.2c-1.9-6.8-8.2-11.8-15.8-11.8s-13.9 5-15.8 11.8h-4.2c-6 0-10.9 4.8-10.9 10.6 0 5.9 4.9 10.6 10.9 10.6h38c6 0 10.9-4.8 10.9-10.6.1-5.8-4.8-10.6-10.9-10.6z" fill="none" stroke="#fff" stroke-miterlimit="10" stroke-width="2.061"/><path clip-path="url(#a)" d="m93.3 53.5h-3.7c-3.1-11.2-13.5-19.4-26-19.4s-22.9 8.2-26 19.4h-6.9c-9.9 0-18 7.8-18 17.5s8 17.5 18 17.5h62.5c9.9 0 18-7.8 18-17.5.1-9.7-8-17.5-17.9-17.5" fill="#57bdde"/><path clip-path="url(#a)" d="m93.3 53.5h-3.7c-3.1-11.2-13.5-19.4-26-19.4s-22.9 8.2-26 19.4h-6.9c-9.9 0-18 7.8-18 17.5s8 17.5 18 17.5h62.5c9.9 0 18-7.8 18-17.5.1-9.7-8-17.5-17.9-17.5z" fill="none" stroke="#fff" stroke-miterlimit="10" stroke-width="2.061"/><path d="m44.3 58.7s4.2-14.6 20.4-13.9" style="fill:none;stroke:#fff;stroke-width:2.061;stroke-linecap:round;stroke-miterlimit:10;clip-path:url(#a)"/><path clip-path="url(#a)" d="m55.1 359.2c-5.7 0-11.3-2.1-15.6-6.3-8.6-8.4-8.6-22 0-30.4l34.9-33.9c8.6-8.4 22.7-8.4 31.3 0s8.6 22.1 0 30.4l-34.9 33.9c-4.3 4.2-10 6.3-15.7 6.3m34.9-73.8c-5.1 0-9.8 1.9-13.4 5.4l-34.9 33.9c-3.6 3.5-5.5 8.1-5.5 13s2 9.6 5.5 13c3.6 3.5 8.3 5.4 13.4 5.4s9.8-1.9 13.4-5.4l34.9-33.9c3.6-3.5 5.5-8.1 5.5-13s-2-9.6-5.5-13c-3.6-3.5-8.3-5.4-13.4-5.4" fill="#56bddd"/><path clip-path="url(#a)" d="m93.8 292.9c-.1 0-.3 0-.4-.1-.3-.1-.6-.1-.9-.2-.9-.2-1.4-1-1.3-1.8.2-.8 1-1.4 1.9-1.2.4.1.7.2 1.1.2.8.2 1.3 1.1 1.1 1.9-.1.7-.8 1.2-1.5 1.2" fill="#fcfcfc"/><path clip-path="url(#a)" d="m69.1 308.1c-.4 0-.8-.2-1.1-.5-.6-.6-.6-1.6 0-2.2l12.3-12c1.5-1.4 3.2-2.5 5.1-3.2.8-.3 1.7.1 2 .9s-.1 1.7-.9 2c-1.5.5-2.8 1.4-4 2.5l-12.3 12c-.3.3-.7.5-1.1.5" fill="#fcfcfc"/><path clip-path="url(#a)" d="m68.1 284.9c-.9 0-1.6-.7-1.6-1.5v-12.6c0-.9.7-1.5 1.6-1.5s1.6.7 1.6 1.5v12.6c0 .8-.7 1.5-1.6 1.5" fill="#fcfcfc"/><path clip-path="url(#a)" d="m68.1 368.8c-.9 0-1.6-.7-1.6-1.5v-6.4c0-.9.7-1.5 1.6-1.5s1.6.7 1.6 1.5v6.4c0 .8-.7 1.5-1.6 1.5" fill="#fcfcfc"/><path clip-path="url(#a)" d="m44.9 298c-.4 0-.8-.1-1.1-.5l-10.4-10.2c-.6-.6-.6-1.6 0-2.2s1.6-.6 2.2 0l10.4 10.3c.6.6.6 1.6 0 2.2-.3.3-.7.4-1.1.4" fill="#fcfcfc"/><path clip-path="url(#a)" d="m28.4 282c-.4 0-.8-.1-1.1-.5l-1.6-1.6c-.6-.6-.6-1.6 0-2.2s1.6-.6 2.2 0l1.6 1.6c.6.6.6 1.6 0 2.2-.2.4-.7.5-1.1.5" fill="#fff"/><path clip-path="url(#a)" d="m108 362.3c-.4 0-.8-.1-1.1-.4l-10.9-10.5c-.6-.6-.6-1.6 0-2.2s1.6-.6 2.2 0l10.8 10.5c.6.6.6 1.6 0 2.2-.2.3-.6.4-1 .4" fill="#fcfcfc"/><path clip-path="url(#a)" d="m37 310c-.2 0-.4 0-.6-.1l-11-4.7c-.8-.3-1.2-1.3-.8-2 .4-.8 1.3-1.1 2.1-.8l11 4.7c.8.3 1.2 1.3.8 2-.3.6-.9.9-1.5.9" fill="#fcfcfc"/><path clip-path="url(#a)" d="m120.4 345.2c-.2 0-.4 0-.6-.1l-13.7-5.7c-.8-.3-1.2-1.2-.8-2 .3-.8 1.3-1.2 2.1-.8l13.7 5.7c.8.3 1.2 1.2.8 2-.3.5-.9.9-1.5.9" fill="#fcfcfc"/><path clip-path="url(#a)" d="m51.2 283.5c-.6 0-1.2-.4-1.5-1l-2.8-6.8c-.3-.8.1-1.7.9-2s1.7.1 2.1.9l2.8 6.8c.3.8-.1 1.7-.9 2-.2 0-.4.1-.6.1" fill="#fcfcfc"/><path clip-path="url(#a)" d="m88.7 366.8c-.6 0-1.1-.3-1.4-.8l-4.9-8.4c-.4-.7-.2-1.7.6-2.1s1.7-.2 2.2.6l4.9 8.4c.4.7.2 1.7-.6 2.1-.3.1-.6.2-.8.2" fill="#fcfcfc"/><path clip-path="url(#a)" d="m28.1 324.2h-6.8c-.9 0-1.6-.7-1.6-1.5 0-.9.7-1.5 1.6-1.5h6.8c.9 0 1.6.7 1.6 1.5s-.7 1.5-1.6 1.5" fill="#fcfcfc"/><path clip-path="url(#a)" d="m119.1 324.2h-8.6c-.9 0-1.6-.7-1.6-1.5 0-.9.7-1.5 1.6-1.5h8.6c.9 0 1.6.7 1.6 1.5s-.7 1.5-1.6 1.5" fill="#fcfcfc"/><g fill="#56bddd"><path clip-path="url(#a)" d="m86.6 336c-.4 0-.8-.1-1.1-.5l-28.5-27.7c-.6-.6-.6-1.6 0-2.2s1.6-.6 2.2 0l28.5 27.7c.6.6.6 1.6 0 2.2-.3.3-.7.5-1.1.5"/><path clip-path="url(#a)" d="m55.5 344.1-4 6.2 5.3-.9c.4-.1.8 0 1 .1.3.2.4.4.5.7s0 .6-.2.8-.5.4-.9.4l-7.3 1.2c-.5.1-.9 0-1.2-.1-.3-.2-.5-.5-.5-.8 0-.2 0-.5.1-.7.1-.3.4-.7.9-1.4s.9-1.4 1.3-2 .8-1.2 1.1-1.7.6-1 .8-1.3c.2-.4.4-.7.5-.9l-4 .7c-.6.1-1 .1-1.3.1s-.5-.3-.6-.7c-.1-.3 0-.6.2-.8s.5-.4.9-.4l6.2-1c.6-.1 1-.1 1.4 0 .3.1.5.4.6.8v.5c0 .2-.1.3-.1.4-.1.1-.1.2-.2.4-.2 0-.3.2-.5.4"/><path clip-path="url(#a)" d="m47 340.1-5.5-3.8.5 4.7c0 .4 0 .7-.2.9s-.4.3-.7.4c-.3 0-.5 0-.7-.2s-.3-.4-.4-.8l-.7-6.5c-.1-.5 0-.8.2-1s.4-.4.8-.4c.2 0 .4 0 .7.2.2.1.7.4 1.3.9.7.5 1.3.9 1.8 1.3s1 .7 1.5 1 .9.6 1.2.8.6.4.8.5l-.4-3.5c-.1-.5-.1-.9 0-1.1.1-.3.3-.4.7-.5.3 0 .5 0 .7.2s.3.4.3.8l.6 5.5c.1.5 0 .9-.1 1.2s-.4.5-.8.5c-.1 0-.3 0-.4 0s-.3-.1-.4-.1c-.1-.1-.2-.1-.4-.2 0-.5-.2-.6-.4-.8"/><path clip-path="url(#a)" d="m51.7 322.5-.1 6.3 3.5-2.9c.3-.2.5-.4.8-.3.3 0 .5.1.7.3s.2.4.2.6-.2.5-.5.7l-4.8 4c-.3.3-.7.4-.9.4-.3 0-.6-.1-.8-.4-.1-.1-.2-.3-.2-.6 0-.2 0-.7 0-1.4s0-1.4 0-2 0-1.2 0-1.7 0-1 0-1.3c0-.4 0-.7 0-.9l-2.6 2.2c-.4.3-.7.5-.9.6s-.5 0-.7-.3c-.2-.2-.2-.4-.2-.6s.2-.5.4-.7l4.1-3.4c.4-.3.7-.5 1-.6s.6 0 .8.3c.1.1.1.2.2.3 0 .1.1.2.1.4v.4c-.1.2-.1.4-.1.6"/><path clip-path="url(#a)" d="m62.7 343.8 3.6 3.6.3-3.6c0-.3.1-.5.3-.6s.3-.2.6-.2c.2 0 .4.1.5.3s.2.4.1.7l-.4 5c0 .3-.1.6-.3.8s-.4.2-.7.2c-.2 0-.3-.1-.5-.2s-.4-.4-.8-.8-.8-.8-1.2-1.2c-.3-.4-.7-.7-1-1s-.6-.6-.8-.8-.4-.4-.5-.5l-.2 2.7c0 .4-.1.7-.2.8-.1.2-.3.3-.6.2-.2 0-.4-.1-.5-.3s-.2-.4-.1-.6l.3-4.2c0-.4.1-.7.2-.9s.4-.3.7-.3c.1 0 .2 0 .3.1.1 0 .2.1.3.2l.2.2c.2.2.3.3.4.4"/><path clip-path="url(#a)" d="m62.1 331.5-2.1 7 4.9-2.2c.4-.2.7-.2 1-.1s.5.3.6.6.1.5 0 .8-.4.5-.8.7l-6.7 3.1c-.5.2-.9.3-1.2.2s-.6-.3-.7-.7c-.1-.2-.1-.5-.1-.7.1-.3.2-.8.5-1.6s.5-1.6.7-2.3.4-1.3.6-1.9.3-1.1.4-1.5.2-.7.2-1l-3.7 1.7c-.5.2-.9.4-1.2.4s-.5-.1-.7-.5c-.1-.3-.1-.5 0-.8s.4-.5.7-.6l5.7-2.6c.5-.2 1-.4 1.3-.3.4 0 .6.2.8.6.1.1.1.3.1.4v.4c0 .1-.1.3-.1.4 0 0-.1.3-.2.5"/><path clip-path="url(#a)" d="m69.4 337.9 4.6-5.5-5.2.2c-.4 0-.7-.1-1-.3-.2-.2-.3-.4-.3-.7s.1-.5.3-.7.5-.3.9-.3l7.2-.3c.5 0 .9.1 1.1.3.3.2.4.5.4.9 0 .2-.1.4-.2.7-.2.2-.5.7-1 1.3-.6.7-1.1 1.2-1.5 1.8-.5.5-.9 1-1.3 1.5s-.7.8-1 1.2c-.3.3-.5.6-.6.8l3.9-.1c.5 0 1 0 1.2.1.3.1.4.3.4.7 0 .3-.1.5-.3.7s-.5.3-.9.3l-6.1.2c-.6 0-1 0-1.3-.2-.3-.1-.5-.4-.5-.8 0-.1 0-.3.1-.4s.1-.3.2-.4.2-.2.3-.4c.3-.2.4-.4.6-.6"/><path clip-path="url(#a)" d="m62.2 326.6-.3-7.3-3.8 3.7c-.3.3-.6.5-.9.5s-.6-.1-.8-.3-.3-.5-.3-.7c0-.3.2-.6.5-.9l5.3-5.1c.4-.4.7-.5 1.1-.6.3 0 .7.1.9.4.2.2.3.4.3.7s.1.8.1 1.7.1 1.7.1 2.4.1 1.4.1 2 .1 1.1.1 1.5.1.8.1 1l2.9-2.8c.4-.4.7-.6 1-.8.3-.1.6 0 .9.3.2.2.3.5.3.7 0 .3-.2.6-.5.8l-4.5 4.3c-.4.4-.8.6-1.1.7s-.7 0-1-.3c-.1-.1-.2-.2-.3-.4s-.1-.3-.1-.4 0-.3 0-.5c-.1-.1-.1-.3-.1-.6"/></g><path clip-path="url(#a)" d="m27.6 202.5c-4.4-5.1-4.3-11-4.3-18.5 0-14.5 25.6-12.6 49.1-12.6s49.1-1.9 49.1 12.6c0 7.5.1 13.4-4.3 18.5-8.9 10.4-28.5 10.1-34.8 1.7-4.7-6.2-6.3-13.8-10-13.8-3.5 0-5.3 7.7-10 13.9-6 7.8-25.2 9.4-34.8-1.8" fill="#57bdde"/><path clip-path="url(#a)" d="m27.6 202.5c-4.4-5.1-4.3-11-4.3-18.5 0-14.5 25.6-12.6 49.1-12.6s49.1-1.9 49.1 12.6c0 7.5.1 13.4-4.3 18.5-8.9 10.4-28.5 10.1-34.8 1.7-4.7-6.2-6.3-13.8-10-13.8-3.5 0-5.3 7.7-10 13.9-6 7.8-25.2 9.4-34.8-1.8z" fill="none" stroke="#fff" stroke-miterlimit="10" stroke-width="1.687"/><path clip-path="url(#a)" d="m53.8 160.1h-11.2l8.4-12.5h-11.2 11.2l-8.4 12.5z" fill="none" stroke="#fff" stroke-miterlimit="10" stroke-width="2.264"/><path clip-path="url(#a)" d="m78.3 160.1h-13.9l10.2-15.3h-13.8 13.8l-10.2 15.3z" fill="none" stroke="#fff" stroke-miterlimit="10" stroke-width="2.264"/><path clip-path="url(#a)" d="m105.1 160.1h-15.8l12.2-18.2h-15.7 15.7l-12.2 18.2z" fill="none" stroke="#fff" stroke-miterlimit="10" stroke-width="2.264"/><path clip-path="url(#a)" d="m12.7 180.6 10.9 2.8z" fill="none" stroke="#fff" stroke-miterlimit="10" stroke-width="3.911"/><path clip-path="url(#a)" d="m121.3 183.4 10.9-2.8-10.9 2.8 10.9-2.8z" fill="none" stroke="#fff" stroke-miterlimit="10" stroke-width="3.911"/></svg>