<svg viewBox="0 0 600 600" xmlns="http://www.w3.org/2000/svg"><g fill="#07175f"><path d="M299 595c-39.958 0-78.723-7.827-115.218-23.263-35.248-14.91-66.903-36.25-94.086-63.434s-48.525-58.838-63.434-94.086C10.827 377.723 3 338.957 3 299s7.827-78.723 23.263-115.218c14.91-35.248 36.25-66.903 63.434-94.086s58.838-48.525 94.086-63.434C220.277 10.827 259.043 3 299 3s78.723 7.827 115.218 23.263c35.248 14.91 66.903 36.25 94.086 63.434s48.525 58.838 63.434 94.086C587.173 220.277 595 259.043 595 299s-7.827 78.723-23.263 115.218c-14.91 35.248-36.25 66.903-63.434 94.086s-58.838 48.525-94.086 63.434C377.723 587.173 338.957 595 299 595zm0-584.527c-77.068 0-149.524 30.012-204.02 84.508C40.485 149.48 10.473 221.94 10.473 299S40.485 448.524 94.98 503.02 221.93 587.528 299 587.528s149.524-30.012 204.02-84.508c54.496-54.495 84.508-126.95 84.508-204.02S557.515 149.476 503.02 94.98C448.524 40.485 376.068 10.473 299 10.473z"/><path d="M225.624 533.377c-1.034 3.075-3.837 4.336-6.755 3.354-2.97-.99-4.39-3.68-3.36-6.75 1.03-3.07 3.8-4.4 6.77-3.4 2.916.982 4.37 3.733 3.335 6.807zm-53.56-47.025l.658 13.023.374.232 6.59 4.085 5.65-9.112 7.57 4.694-20.284 32.71-14.158-8.78c-8.738-5.42-11.394-13.34-6.846-20.677 3.043-4.906 7.75-6.97 13.132-6.154l-.816-15.063zm-9.355 30.945l6.16 3.825 7.07-11.4-6.17-3.826c-4.627-2.87-8.296-2.168-10.498 1.383-2.233 3.59-1.2 7.15 3.426 10.01zm-30.96-13.13l-6.83-5.73 24.75-29.474 6.82 5.728zm7.53-38.87l-6.997 2.292c-.44-3.99-2.488-8.68-5.604-12.09-3.56-3.9-6.306-4.298-8.05-2.7-5.32 4.86 13.432 18.04 2.88 27.683-4.83 4.414-12.41 4.19-19.79-3.89-3.268-3.57-5.75-8.003-6.5-12.163l6.85-2.533c.91 4.01 2.663 7.4 4.963 9.915 3.56 3.896 6.395 4.063 8.18 2.43 5.237-4.785-13.473-18.005-3.04-27.538 4.75-4.34 12.407-4.112 19.825 4.007 4.114 4.51 6.93 10.28 7.28 14.577zM94.563 427.8l7.312 1.513 8.24-5.174 4.703 7.49-32.59 20.47-4.707-7.5 15.227-9.56-24.29-4.874-5.26-8.382 23.01 4.383 9.097-25.64 5.525 8.8zM52.54 376.1l9.74-2.932-5.137-17.06 6.845-2.06 5.137 17.06 13.426-4.044 2.57 8.53-36.85 11.098-8.385-27.853 6.845-2.07zm19.628-61.863l-9.825 8.572.05.43.864 7.7 10.654-1.197 1 8.85-38.242 4.3-1.86-16.555c-1.146-10.217 3.436-17.205 12.014-18.168 5.737-.644 10.27 1.78 12.958 6.512l11.33-9.96zm-30.1 11.79l.81 7.21 13.33-1.496-.81-7.21c-.607-5.41-3.428-7.86-7.58-7.39-4.206.47-6.358 3.48-5.75 8.89zm24.2-61.132l7.13.498-2.076 29.726-38.392-2.69 2.027-29.015 7.13.5-1.41 20.182 8.337.58 1.245-17.824 6.91.484-1.25 17.826 8.88.62zm9.266-40.377l6.933 1.742-7.265 28.905-37.33-9.382 7.09-28.212 6.932 1.75-4.932 19.627 8.106 2.037 4.356-17.332 6.72 1.69-4.356 17.33 8.64 2.173zm-5.102-48.165l-5.95 10.784-6.355-3.506 16.203-29.36 6.35 3.51-5.95 10.783 27.345 15.087-4.303 7.796zm57.653-29.18l-13.003-.99-.277.34-4.885 6.02 8.326 6.756-5.612 6.91-29.89-24.25 10.496-12.94c6.48-7.987 14.68-9.62 21.38-4.183 4.487 3.638 5.94 8.57 4.45 13.805l15.048 1.09zm-29.518-13.187l-4.573 5.636 10.418 8.453 4.573-5.636c3.43-4.23 3.198-7.96-.048-10.59-3.287-2.67-6.94-2.09-10.37 2.13zm16.923-29.054l6.54-6.047 26.13 28.26-6.54 6.046zm58.3-7.482l-14.755 10.08 1.84 8.733-7.537 5.15-7.55-41.457 7.263-4.963 35.93 22.067-7.713 5.278zm-6.132-4.003l-13.352-8.723 3.274 15.61zm12.44-34.35l8.134-3.627 12.72 28.52 17.626-7.86 2.957 6.628-25.76 11.49zm61.505-2.11c-.688-3.17 1.073-5.69 4.082-6.344 3.063-.664 5.655.912 6.343 4.082.688 3.17-1.007 5.732-4.07 6.397-3.01.652-5.667-.966-6.355-4.136zm44.693 2.543c.754 6.443-3.525 12.923-14.392 14.195-5.352.627-11.04-.202-15.06-2.39l2.647-7.174c3.15 1.85 7.34 2.63 11.33 2.17 4.43-.52 6.948-2.64 6.58-5.75-.34-2.894-2.68-4.447-7.7-3.86l-4.04.474-.685-5.843 6.82-9.82-16.273 1.904-.83-7.1L281.45 33.2l.672 5.736-7.48 10.84c7.01.29 11.003 4.14 11.66 9.766zm7.914-11.254l15.56.25-.11 6.873-15.56-.26zm64.646-9.55l-5.916 38.03-7.226-1.125-15.37-26.03-3.59 23.09-8.694-1.352 5.916-38.03 7.28 1.133 15.314 26.03 3.592-23.09zm14.662 4.304l8.522 2.593-11.202 36.822-8.522-2.592zm38.748 35.01l7.39 3.407-6.54 14.18c-5.18 1.123-11.185.23-16.178-2.072-10.984-5.065-15.596-16.335-10.738-26.87s16.423-14.345 27.558-9.21c6.142 2.832 10.267 7.278 11.844 12.788l-7.403 2.4c-1.31-3.87-3.68-6.478-7.22-8.113-6.79-3.13-13.53-.73-16.59 5.912-3.02 6.54-.52 13.326 6.17 16.41 2.194 1.014 4.43 1.56 6.98 1.404zm57.58 15.092l-22.48 31.243-7.233-5.203 9.218-12.81-14.19-10.212-9.21 12.81-7.23-5.203 22.48-31.243 7.23 5.203-8.862 12.32 14.194 10.212 8.865-12.32zm12.37 21.682l-8.61-8.806 5.19-5.074 23.444 23.98-5.19 5.073-8.61-8.806-22.327 21.84-6.227-6.37zm7.492 50.27l7.303-.907c-.33 4 .78 8.99 3.18 12.936 2.75 4.508 5.37 5.424 7.39 4.194 6.15-3.747-9.714-20.286 2.496-27.724 5.588-3.404 12.984-1.727 18.676 7.618 2.517 4.14 4.105 8.96 4.04 13.19l-7.207 1.17c-.122-4.11-1.193-7.77-2.966-10.68-2.746-4.51-5.495-5.215-7.56-3.96-6.06 3.69 9.763 20.26-2.306 27.61-5.494 3.348-12.964 1.65-18.685-7.74-3.177-5.21-4.83-11.413-4.35-15.7zm51.72 20.636l3.42 8.224-28.836 11.993 7.41 17.82-6.7 2.787L505.89 200.5zm-9.208 73.472l-6.948 1.677-6.99-28.98 37.416-9.03 6.823 28.28-6.94 1.674-4.745-19.67-8.125 1.96 4.192 17.37-6.734 1.626-4.19-17.37-8.66 2.09zm3.34 38.39l-7.127.52-2.164-29.72 38.38-2.795 2.11 29.007-7.13.52-1.47-20.18-8.338.608 1.297 17.82-6.91.504-1.296-17.82-8.883.646zm13.96 43.668c-8.538-.824-13.23-7.74-12.24-17.976l.745-7.718-10.564-1.02.86-8.867 38.32 3.69-1.6 16.584c-.99 10.235-6.916 16.126-15.51 15.297zm.868-8.977c4.215.407 6.942-2.092 7.465-7.51l.698-7.226-13.3-1.284-.69 7.225c-.522 5.42 1.677 8.393 5.837 8.795zM529.2 393.606l-2.82 7.632-14.646-5.413c-1.524-5.076-1.102-11.133.804-16.29 4.193-11.345 15.067-16.822 25.948-12.8s15.58 15.253 11.33 26.753c-2.343 6.343-6.453 10.803-11.823 12.804l-2.97-7.193c3.758-1.61 6.17-4.17 7.525-7.83 2.592-7.02-.328-13.55-7.187-16.08-6.75-2.5-13.32.52-15.87 7.43-.84 2.27-1.21 4.536-.852 7.07zm-10.53 16.918l18.443 11.156-4.61 7.62-18.16-10.983c-6.257-3.785-10.495-2.62-13.284 1.99-2.82 4.657-1.86 8.904 4.4 12.688l18.16 10.985-4.557 7.528-18.44-11.156c-9.694-5.862-11.7-14.658-6.036-24.02 5.66-9.362 14.383-11.67 24.074-5.808zm-48.273 52.102l11.9-13.332-3.884-8.035 6.078-6.81 17.3 38.42-5.86 6.562-40.172-12.79 6.225-6.973zm6.913 2.41l15.058 5.26-6.93-14.367zM432.82 484.3l12.44 3.91.347-.27 6.12-4.758-6.58-8.466 7.034-5.466 23.62 30.39-13.15 10.223c-8.12 6.31-16.47 6.047-21.77-.77-3.54-4.558-3.84-9.69-1.2-14.453l-14.41-4.47zm25.763 19.53l5.73-4.454-8.232-10.593-5.73 4.454c-4.29 3.34-4.91 7.025-2.35 10.324 2.6 3.35 6.29 3.61 10.59.27zm-57.75 8.802l15.863-8.228-.77-8.89 8.1-4.203 2.494 42.07-7.81 4.05-32.997-26.24 8.297-4.3zm5.603 4.712l12.203 10.27-1.37-15.89zm-47.843 41.988l-10.874-36.917 7.01-2.066 25.01 16.99-6.6-22.42 8.43-2.488 10.874 36.917-7.067 2.08-24.956-17.007 6.6 22.416zm-24.745-3.557l12.238-1.377.81 7.212-33.327 3.75-.82-7.212 12.24-1.377-3.49-31.03 8.85-.99zm-60.023-22.88l.314-7.14 29.77 1.307-1.69 38.452-29.06-1.277.31-7.14 20.213.888.367-8.35-17.853-.784.304-6.92 17.855.79.39-8.9zm-37.847-7.402l1.473-6.994 29.16 6.14-7.93 37.66-28.46-6 1.48-6.998 19.8 4.17 1.72-8.176-17.483-3.684 1.43-6.777 17.484 3.684 1.836-8.715zm66.652-86.416c-75.464 0-136.86-61.24-136.86-136.517 0-54.864 32.697-104.19 83.298-125.66 1.62-.687 3.488-.318 4.724.922 1.238 1.242 1.6 3.113.91 4.726-6.768 15.822-10.2 32.664-10.2 50.058 0 70.534 57.54 127.92 128.263 127.92 17.443 0 34.334-3.424 50.2-10.174 1.617-.688 3.487-.324 4.724.917 1.23 1.24 1.6 3.11.91 4.72-21.53 50.47-70.97 83.08-125.97 83.08zm-59.702-249.77c-41.97 21.98-68.56 65.366-68.56 113.252 0 70.53 57.54 127.91 128.263 127.91 48.02 0 91.51-26.51 113.55-68.36-13.92 4.652-28.48 7.01-43.41 7.01-75.46 0-136.86-61.24-136.86-136.52 0-14.896 2.36-29.41 7.027-43.3zm158.938 34.458c-.084 0-.17-.002-.255-.008-2.34-.138-4.14-2.126-4.04-4.47.03-.704.1-7.06-6.43-13.573-6.765-6.75-14.45-7.51-15.305-7.575-2.34-.18-4.105-2.2-3.97-4.54.14-2.35 2.144-4.13 4.47-4.05l.255.002c1.623 0 7.39-.463 13.37-6.427 6.762-6.745 7.526-14.404 7.59-15.256.18-2.338 2.183-4.1 4.54-3.965 2.34.137 4.142 2.125 4.044 4.47-.03.703-.1 7.06 6.432 13.572 6.768 6.75 14.453 7.51 15.308 7.574 2.34.18 4.106 2.198 3.97 4.54-.14 2.343-2.146 4.155-4.47 4.046l-.255-.006c-1.626 0-7.394.465-13.37 6.428-6.624 6.603-7.487 13.866-7.59 15.255-.176 2.255-2.056 3.975-4.288 3.975zm-11.89-29.715c2.378 1.388 4.85 3.204 7.23 5.577 2.046 2.04 3.63 4.09 4.855 6.06 1.4-2.38 3.22-4.856 5.61-7.237 2.04-2.032 4.08-3.607 6.05-4.827-2.38-1.388-4.85-3.204-7.23-5.577-2.04-2.04-3.63-4.09-4.85-6.06-1.393 2.38-3.22 4.856-5.605 7.238-2.04 2.03-4.082 3.605-6.05 4.826z"/><path d="M311.26 234.434c-.084 0-.166-.002-.252-.008-2.34-.135-4.142-2.122-4.048-4.466.015-.364.04-3.662-3.52-7.214-3.79-3.78-8.01-4.197-8.478-4.232-2.34-.176-4.106-2.195-3.97-4.537s2.155-4.137 4.47-4.047h.01c.713 0 3.894-.182 7.234-3.515 3.78-3.77 4.205-7.98 4.242-8.448.18-2.34 2.172-4.1 4.54-3.963 2.342.14 4.14 2.13 4.042 4.473-.015.363-.047 3.65 3.52 7.206 3.79 3.78 8.01 4.198 8.477 4.233 2.34.175 4.106 2.195 3.97 4.537-.136 2.344-2.212 4.142-4.47 4.047h-.01c-.713 0-3.894.182-7.234 3.514-3.787 3.778-4.204 7.976-4.24 8.442-.168 2.256-2.05 3.978-4.283 3.978zm-4.49-20.137c.916.677 1.838 1.46 2.743 2.36.677.676 1.278 1.354 1.814 2.028.684-.923 1.47-1.85 2.383-2.76.67-.668 1.344-1.263 2.01-1.793-.917-.677-1.84-1.46-2.744-2.36-.677-.676-1.278-1.354-1.814-2.027-.684.922-1.47 1.85-2.383 2.758-.67.67-1.35 1.264-2.01 1.794zm78.263 101.313c-.084 0-.17-.002-.255-.008-2.343-.138-4.142-2.127-4.044-4.47.027-.632.086-6.338-5.818-12.228-6.137-6.122-13.092-6.81-13.864-6.867-2.34-.177-4.105-2.196-3.97-4.54.14-2.34 2.166-4.14 4.472-4.044l.218.004c1.46 0 6.65-.42 12.057-5.812 6.14-6.124 6.82-13.042 6.88-13.81.17-2.34 2.16-4.107 4.53-3.97 2.342.135 4.142 2.124 4.045 4.47-.027.63-.086 6.337 5.82 12.227 6.137 6.122 13.09 6.81 13.863 6.868 2.34.177 4.105 2.196 3.97 4.54-.14 2.34-2.14 4.136-4.47 4.044l-.22-.004c-1.46 0-6.65.42-12.056 5.812-6.133 6.115-6.823 13.045-6.88 13.816-.177 2.252-2.056 3.972-4.288 3.972zm-10.282-27.69c2.07 1.25 4.19 2.85 6.24 4.896 1.73 1.728 3.11 3.462 4.2 5.144 1.26-2.05 2.87-4.17 4.94-6.228 1.73-1.726 3.47-3.098 5.157-4.187-2.062-1.25-4.187-2.85-6.24-4.896-1.736-1.74-3.12-3.48-4.212-5.17-1.257 2.062-2.864 4.19-4.923 6.243-1.73 1.727-3.467 3.1-5.15 4.19z"/></g></svg>