<svg xmlns="http://www.w3.org/2000/svg" viewBox="0 0 100 100"><ellipse cx="50" cy="50" rx="43.441" ry="42.752"/><path fill="#FFF" d="M50 99.31C22.43 99.31 0 77.19 0 50S22.43.69 50 .69 100 22.81 100 50 77.57 99.31 50 99.31zm0-85.503c-20.337 0-36.882 16.236-36.882 36.193 0 19.957 16.545 36.193 36.882 36.193 20.337 0 36.882-16.236 36.882-36.193 0-19.957-16.545-36.193-36.882-36.193z"/><path d="M38.966 60.184c0 1.076-.204 2.102-.61 3.08-.408.976-.97 1.832-1.687 2.565-.72.73-1.56 1.32-2.52 1.75-.96.44-2 .66-3.11.66-.946 0-1.907-.13-2.884-.39-.978-.26-1.857-.71-2.64-1.346s-1.425-1.474-1.93-2.517c-.504-1.04-.757-2.36-.757-3.96V40.88c0-1.14.195-2.2.586-3.178.39-.978.945-1.824 1.66-2.54.72-.717 1.573-1.28 2.57-1.687.992-.407 2.092-.61 3.3-.61 1.14 0 2.2.203 3.174.61.98.408 1.825.978 2.54 1.71.72.733 1.28 1.613 1.688 2.64.41 1.025.61 2.142.61 3.347v1.955h-4.98v-1.662c0-.978-.277-1.824-.83-2.54-.556-.717-1.304-1.076-2.25-1.076-1.237 0-2.06.38-2.467 1.14-.403.764-.61 1.733-.61 2.91v17.79c0 1.01.22 1.854.66 2.54.44.682 1.23 1.03 2.37 1.03.33 0 .68-.06 1.05-.17.38-.12.72-.3 1.03-.567.31-.26.56-.62.76-1.076.194-.455.292-1.026.292-1.71v-1.71h4.984v2.15zm2.784-27.027h7.283c1.596 0 2.957.244 4.08.733 1.125.488 2.046 1.14 2.763 1.955.717.815 1.23 1.752 1.54 2.81.31 1.06.464 2.16.464 3.3v1.27c0 .945-.073 1.744-.22 2.395-.146.652-.367 1.222-.66 1.71-.293.49-.652.92-1.076 1.295-.424.375-.912.726-1.466 1.05 1.173.555 2.036 1.378 2.59 2.47.553 1.09.83 2.55.83 4.373v1.955c0 3.063-.74 5.41-2.223 7.038-1.483 1.63-3.854 2.45-7.11 2.45H41.75v-34.8zm4.986 14.27h2.248c1.66 0 2.777-.415 3.348-1.245.57-.83.856-2.044.856-3.64 0-1.565-.318-2.738-.954-3.52-.635-.782-1.783-1.173-3.445-1.173h-2.06v9.57zm0 15.543h2.15c1.01 0 1.8-.146 2.37-.44.57-.293 1.002-.7 1.295-1.222.3-.52.48-1.14.54-1.857.07-.71.1-1.49.1-2.34 0-.88-.05-1.64-.14-2.293-.097-.65-.3-1.197-.61-1.637-.31-.44-.74-.774-1.296-1-.555-.23-1.29-.344-2.2-.344h-2.2v11.14zM61.3 33.157h7.38c2.836 0 5.002.79 6.5 2.37 1.5 1.58 2.25 3.788 2.25 6.622v16.27c0 3.26-.79 5.66-2.37 7.21-1.582 1.54-3.855 2.32-6.82 2.32h-6.938V33.15zm4.986 30.106h2.297c1.4 0 2.395-.35 2.98-1.05.588-.7.88-1.8.88-3.3V42.15c0-1.368-.276-2.427-.83-3.177-.554-.75-1.563-1.124-3.03-1.124h-2.297v25.41z" fill="#C6A254"/></svg>