<svg xmlns="http://www.w3.org/2000/svg" viewBox="0 0 200 200"><path fill="#A2C0D9" d="M100 199c-13.364 0-26.33-2.618-38.536-7.78-11.79-4.986-22.376-12.124-31.468-21.216-9.092-9.092-16.23-19.68-21.216-31.468C3.618 126.33 1 113.364 1 100s2.618-26.33 7.78-38.536c4.986-11.79 12.124-22.376 21.216-31.468s19.68-16.23 31.468-21.216C73.67 3.618 86.636 1 100 1s26.33 2.618 38.536 7.78c11.79 4.986 22.376 12.124 31.468 21.216 9.092 9.092 16.23 19.68 21.216 31.468C196.382 73.67 199 86.636 199 100s-2.618 26.33-7.78 38.536c-4.986 11.79-12.124 22.376-21.216 31.468-9.092 9.092-19.68 16.23-31.468 21.216C126.33 196.382 113.364 199 100 199zm0-195.5c-25.776 0-50.01 10.037-68.236 28.263C13.537 49.99 3.5 74.223 3.5 100s10.037 50.01 28.263 68.236C49.99 186.463 74.223 196.5 100 196.5s50.01-10.038 68.235-28.264C186.462 150.01 196.5 125.776 196.5 100s-10.04-50.01-28.265-68.236C150.01 13.537 125.775 3.5 100 3.5z"/><g fill="#FFF"><path d="M139.974 103.174c-.006-.025-.006-.05-.013-.076-4.75-27.915-37.41-69.06-38.91-70.932-.55-.686-1.47-.953-2.3-.66-.57.2-1.01.634-1.23 1.17-.29.47-1.41 1.992-2.59 3.6-6.39 8.697-21.99 29.934-30.62 49.874-.03.07-.07.14-.09.22-3.543 8.23-5.895 16.24-5.895 23.034 0 24.85 14.57 39.92 39.058 40.73v12.733c0 1.142.928 2.067 2.07 2.067s2.067-.924 2.067-2.065v-12.73c24.487-.81 39.06-15.88 39.06-40.73 0-1.98-.216-4.08-.58-6.24zM79.89 65.584L97.364 81.68v29.21L68.68 86.356c3.126-6.966 7.108-14.107 11.21-20.774zm21.608-26.03c5.125 6.843 14.66 20.147 22.478 34.308l-22.478 19.215V39.555zm0 58.962l24.48-20.926c4.56 8.71 8.28 17.546 9.753 25.235l-34.23 27.34v-31.65zm-4.135-58.58v36.12L82.125 62.02c5.84-9.18 11.632-17.166 15.238-22.08zM62.44 109.413c0-5.613 1.77-12.19 4.54-19.07l30.384 25.987v29.68c-22.212-.778-34.924-13.995-34.924-36.598zm39.058 36.598v-10.55l34.854-27.83c.037.61.07 1.21.07 1.79-.002 22.61-12.714 35.82-34.924 36.6z"/><path d="M99.43 165.077c-1.213 0-2.2-.988-2.2-2.202v-12.602c-12.008-.424-21.92-4.36-28.675-11.387-6.793-7.068-10.384-17.26-10.384-29.473 0-6.216 1.99-13.984 5.91-23.09.01-.04.04-.095.06-.15l.04-.075c8.65-19.975 24.06-40.948 30.64-49.902l.04-.05c1.17-1.584 2.27-3.08 2.55-3.54.23-.563.71-1.018 1.3-1.226.88-.31 1.86-.028 2.45.703 1.39 1.743 34.18 43.008 38.94 70.994l.01.047.01.03c.396 2.323.586 4.37.586 6.26 0 12.213-3.59 22.404-10.384 29.472-6.752 7.027-16.665 10.963-28.67 11.387v12.602c0 1.214-.99 2.202-2.204 2.202zm0-133.553c-.213 0-.43.036-.637.11-.523.182-.942.58-1.152 1.094-.3.488-1.4 1.988-2.57 3.577l-.03.05c-6.57 8.948-21.97 29.902-30.6 49.848l-.04.088c-.02.04-.04.08-.05.13-3.91 9.09-5.89 16.82-5.89 23 0 12.14 3.565 22.27 10.31 29.29 6.728 7 16.624 10.91 28.618 11.31l.13.01v12.863c0 1.065.87 1.93 1.934 1.93 1.067 0 1.934-.865 1.934-1.93v-12.87l.13-.004c11.995-.4 21.89-4.31 28.62-11.31 6.744-7.017 10.31-17.144 10.31-29.286 0-1.87-.188-3.903-.578-6.21l-.01-.044-.007-.037c-4.755-27.92-37.5-69.13-38.893-70.87-.376-.47-.937-.73-1.51-.73zm1.933 114.626v-10.76l.05-.04 35.058-27.996.02.26c.04.578.07 1.197.07 1.798 0 11.272-3.08 20.214-9.17 26.577-6.07 6.35-14.78 9.76-25.88 10.15h-.14zm.27-10.63v10.35c10.963-.41 19.56-3.797 25.557-10.068 6.035-6.31 9.095-15.19 9.095-26.39 0-.505-.024-1.025-.053-1.523l-34.6 27.63zm-4.135 10.63l-.14-.005c-11.103-.39-19.81-3.806-25.884-10.156-6.085-6.37-9.17-15.31-9.17-26.58 0-5.19 1.53-11.63 4.55-19.12l.07-.18 30.573 26.15v29.88zM67.035 90.567c-2.96 7.388-4.46 13.727-4.46 18.844 0 11.2 3.06 20.08 9.095 26.39 5.997 6.28 14.595 9.66 25.558 10.07v-29.48L67.035 90.57zm34.328 39.878v-31.99l.047-.04 24.61-21.037.078.15c5.15 9.837 8.437 18.34 9.766 25.273l.015.08-.07.06-34.45 27.52zm.27-31.866v31.3l33.95-27.12c-1.327-6.86-4.572-15.26-9.646-24.97l-24.304 20.78zm-4.135 12.6L68.515 86.39l.04-.092c2.815-6.267 6.59-13.262 11.22-20.79l.087-.14L97.5 81.623v29.56zM68.844 86.32l28.384 24.276V81.74L79.92 65.792c-4.563 7.427-8.29 14.332-11.076 20.527zm32.52 7.05V39.15l.242.323c5.025 6.71 14.63 20.09 22.488 34.322l.053.096-.084.08-22.7 19.41zm.27-53.41v52.823l22.17-18.953c-7.716-13.957-17.1-27.08-22.17-33.87zm-4.136 36.405L81.95 62.04l.06-.094c5.57-8.755 11.073-16.403 15.244-22.088l.244-.332v36.84zM82.3 61.995L97.23 75.75v-35.4c-4.124 5.625-9.493 13.106-14.93 21.645z"/></g></svg>