<svg xmlns="http://www.w3.org/2000/svg" viewBox="0 0 56 100"><path fill="#fff" d="M6.65.24C4.552.75 2.27 2.55 1.364 4.423.4 6.433.47 2.553.47 49.943c0 30.4.043 43.1.157 43.637.567 2.735 2.792 5.187 5.54 6.08l1.036.34h41.524l1.02-.326c1.22-.383 2.935-1.488 3.728-2.41.737-.864 1.488-2.295 1.8-3.443.24-.85.255-3.28.255-43.92V6.89l-.383-1.134c-.95-2.794-3.2-4.876-5.95-5.53C47.89-.084 7.924-.07 6.65.24zm27.098 3.204c.226.227.212.326-.057.595-.18.19-.9.22-5.65.22-2.99 0-5.52-.05-5.65-.09-.22-.09-.31-.64-.12-.81.04-.06 2.62-.1 5.71-.1 4.18 0 5.66.04 5.79.17zm15.12 4.294l.356.34v39.23c-.015 30.61-.043 39.27-.185 39.455-.1.128-.32.298-.49.383-.23.127-5.46.17-20.67.17H7.53l-.412-.41-.41-.412V47.42c0-29.42.04-39.143.17-39.37.084-.17.254-.383.38-.482.172-.142 4.848-.17 20.75-.184h20.52l.34.354zM29.242 91c.312.156.738.553.95.88.553.835.567 2.083.014 2.905-1.077 1.63-3.57 1.53-4.535-.17-.39-.71-.41-1.772-.04-2.537.58-1.22 2.33-1.73 3.62-1.077z"/></svg>