<svg viewBox="0 0 600 600" xmlns="http://www.w3.org/2000/svg"><circle cx="300" cy="300" fill="#fff" r="300"/><path d="M490.7 402.4l-82.4-48.6h-.4c-2.8-1.7-6.7-2.6-11.5-2.6-6.8 0-12.8 2.3-17.9 6.8l-24.3 24.7c-.6.6-1.5 1.1-2.8 1.5s-2.2.6-2.8.6l-5.3-1.1c-3.6-.7-8.7-2.8-15.4-6.2s-15-8.7-25-16-21.3-17.4-34.1-30.5c-13.1-12.8-23.2-24.1-30.3-33.9s-12.4-18.1-15.8-25c-4-7.7-6.5-14.5-7.7-20.5 0-.9.2-1.9.6-3.2s.9-2.2 1.5-2.8l20.9-20.9c3.7-3.7 6.1-8.2 7.3-13.7 1.1-5.4.4-10.4-2.1-14.9l-45.7-86.6c-2-3.1-4.4-5.8-7.3-7.9-2.8-2.1-6.1-3.2-9.8-3.2-5.1 0-9.7 2-13.7 6l-56.8 56.8c-2.8 2.6-5.3 5.9-7.3 10s-3.3 8.2-3.8 12.2c0 .6-.1 3.4-.4 8.5s.3 12.2 1.7 21.1c1.4 9 4.1 19.6 8.1 32s10 26.2 17.9 41.4c8 15.2 18.5 31.8 31.6 49.7s29.6 36.7 49.5 56.3c25 25.3 48.6 45.2 70.8 59.7s42 25.4 59.5 32.6c17.5 7.3 32.3 11.8 44.4 13.7 12.1 1.8 20.8 2.8 26.2 2.8 2.3 0 4.1-.1 5.5-.2s2.3-.2 2.6-.2c4-.6 8-1.8 12.2-3.8 4.1-2 7.5-4.4 10-7.3l56.8-56.3c4.8-4.8 6.8-10.5 6-17.1-1-5.5-4.6-10.2-10.5-13.9z" fill="#ba9851"/></svg>