<svg enable-background="new 0 0 50 50" viewBox="0 0 50 50" xmlns="http://www.w3.org/2000/svg"><path d="m14.9.5c-7.6 0-13.9 6.2-13.9 13.9v20.1c0 7.7 6.2 13.9 13.9 13.9h20.2c7.7 0 13.9-6.2 13.9-13.9v-20.1c0-7.7-6.2-13.9-13.9-13.9zm0 4.1h20.2c5.5 0 9.8 4.3 9.8 9.8v20.1c0 5.5-4.3 9.8-9.8 9.8h-20.2c-5.5 0-9.8-4.3-9.8-9.8v-20.1c.1-5.5 4.4-9.8 9.8-9.8zm23 4.1c-1.6 0-2.9 1.3-2.9 2.9s1.3 2.9 2.9 2.9 2.9-1.3 2.9-2.9-1.3-2.9-2.9-2.9zm-12.9 3.4c-6.8 0-12.3 5.5-12.3 12.3s5.5 12.3 12.3 12.3 12.3-5.5 12.3-12.3-5.5-12.3-12.3-12.3zm0 4.1c4.6 0 8.2 3.7 8.2 8.2 0 4.6-3.7 8.2-8.2 8.2-4.6 0-8.2-3.7-8.2-8.2s3.7-8.2 8.2-8.2z" fill="#fff"/></svg>