<svg xmlns="http://www.w3.org/2000/svg" viewBox="0 0 360 50"><path fill="#C6A254" d="M55.71 49.41V17.185c0-8.887 7.315-16.198 17-16.198 5.342 0 10.68 2.175 13.84 6.72 3.165-4.545 8.503-6.72 13.84-6.72 9.687 0 17.005 7.312 17.005 16.198V49.41h-8.7V19.163c0-6.03-3.363-9.88-8.504-9.88-5.63 0-9.29 3.16-9.29 11.265V49.41h-8.7V20.548c0-8.105-3.65-11.264-9.29-11.264-5.14 0-8.5 3.85-8.5 9.88V49.41h-8.7zM215.486 3.198L201.14 25.714l15.297 23.696h-9.668l-10.86-16.438-10.63 16.438h-9.59l15.22-23.696-14.66-22.516h9.986l9.67 15.176 9.59-15.176h9.984zM50.76 24.698c0 13.942-10.88 24.712-24.937 24.712C11.993 49.41 1 38.412 1 24.697 1 10.987 11.994 0 25.822 0c14.057 0 24.94 10.762 24.94 24.697zm-41.487 0c0 9.974 7.027 17.344 16.437 17.344 9.748 0 16.776-7.256 16.776-17.345 0-10.2-6.916-17.333-16.776-17.333-9.523 0-16.437 7.358-16.437 17.333zm209.71 21.776c0-1.572 1.29-2.863 2.862-2.863 1.57 0 2.863 1.3 2.863 2.87 0 1.586-1.292 2.866-2.863 2.866-1.572 0-2.863-1.28-2.863-2.863zm2.862 2.436c1.34 0 2.436-1.096 2.436-2.436 0-1.34-1.09-2.436-2.43-2.436s-2.432 1.096-2.432 2.436c0 1.34 1.096 2.436 2.436 2.436zm-1.084-4.02h1.02c.57 0 1.23.098 1.23.976 0 .536-.33.646-.523.743l.56 1.3h-.61l-.474-1.22h-.646v1.22h-.55v-3.02zm.55 1.316h.66c.26 0 .47-.122.47-.39 0-.267-.183-.4-.51-.4h-.61v.79zM147.39.118c-15.368 0-24.75 10.767-24.75 24.435 0 14.07 9.782 25.446 23.55 25.446 4.932 0 7.83-.69 10.824-2.84v-9.78c-2.7 2.54-6.04 4.24-9.924 4.24-9.186 0-15.667-7.49-15.667-16.367 0-9.082 6.083-16.76 15.767-16.76 7.982 0 15.567 4.584 15.567 13.567V49h8.78V22.86c0-13.767-9.38-22.744-24.147-22.744z"/><path fill="#FFF" d="M273.476 31.376l2.094-2.44c1.896 1.61 3.82 2.523 6.254 2.523 2.15 0 3.51-1 3.51-2.44v-.06c0-1.39-.793-2.14-4.472-2.97-4.217-1-6.594-2.22-6.594-5.798v-.055c0-3.328 2.83-5.63 6.764-5.63 2.887 0 5.18.86 7.19 2.442l-1.87 2.58c-1.78-1.305-3.565-2-5.376-2-2.038 0-3.227 1.026-3.227 2.3v.058c0 1.497.9 2.163 4.72 3.05 4.19 1 6.34 2.47 6.34 5.685v.054c0 3.634-2.92 5.797-7.08 5.797-3.03-.002-5.887-1.028-8.264-3.108zm18.197-16.583h3.48V31.1h10.416v3.105h-13.9V14.793zm16.272 0h14.688v3.05h-11.207v5.048h9.934v3.05h-9.934v5.22h11.35v3.05h-14.83V14.8zm17.715 0h14.69v3.05h-11.21v5.048h9.934v3.05h-9.934v5.22h11.35v3.05h-14.83V14.8zm17.716 0h7.81c4.642 0 7.53 2.58 7.53 6.49v.055c0 4.354-3.567 6.627-7.926 6.627h-3.934v6.24h-3.48V14.793zm7.528 10.094c2.632 0 4.273-1.442 4.273-3.467v-.055c0-2.274-1.67-3.466-4.273-3.466h-4.047v6.98h4.047zm-112.66 20.88h-2.516v-1.453h2.515v-2.49h1.493v2.49h2.515v1.454h-2.51v2.502h-1.49v-2.502zm9.39 2.556l.97-1.153c.878.76 1.77 1.192 2.896 1.192.996 0 1.624-.47 1.624-1.153v-.03c0-.66-.366-1.01-2.07-1.4-1.95-.47-3.052-1.05-3.052-2.74v-.03c0-1.57 1.31-2.66 3.13-2.66 1.338 0 2.398.406 3.33 1.153l-.866 1.22c-.826-.616-1.65-.943-2.49-.943-.942 0-1.493.486-1.493 1.09v.026c0 .71.42 1.023 2.188 1.442 1.94.47 2.94 1.164 2.94 2.684v.025c0 1.716-1.35 2.74-3.27 2.74-1.4 0-2.724-.488-3.825-1.47zm11.058-6.34h-2.908V40.49h7.44v1.492h-2.908v7.676h-1.624v-7.676zm6.236-1.493h4.087c1.153 0 2.057.34 2.646.916.49.498.76 1.18.76 1.978v.026c0 1.506-.9 2.41-2.17 2.777l2.48 3.47h-1.91l-2.253-3.195h-2.016v3.196h-1.61v-9.17zm3.97 4.545c1.152 0 1.885-.603 1.885-1.533v-.026c0-.982-.707-1.52-1.9-1.52h-2.344v3.078h2.35zm5.502-4.545h6.798v1.44h-5.187v2.384h4.6v1.44h-4.6v2.464h5.26v1.44h-6.87v-9.17zm8.16 7.833l.97-1.153c.877.76 1.768 1.192 2.895 1.192.996 0 1.624-.47 1.624-1.153v-.03c0-.66-.37-1.01-2.07-1.4-1.96-.47-3.06-1.05-3.06-2.74v-.03c0-1.57 1.31-2.66 3.13-2.66 1.34 0 2.4.406 3.33 1.153l-.868 1.22c-.826-.616-1.65-.943-2.49-.943-.942 0-1.493.486-1.493 1.09v.026c0 .71.42 1.023 2.19 1.442 1.94.47 2.933 1.164 2.933 2.684v.025c0 1.716-1.35 2.74-3.276 2.74-1.4 0-2.725-.488-3.826-1.47zm8.253 0l.97-1.153c.877.76 1.768 1.192 2.895 1.192.996 0 1.624-.47 1.624-1.153v-.03c0-.66-.366-1.01-2.07-1.4-1.95-.47-3.052-1.05-3.052-2.74v-.03c0-1.57 1.31-2.66 3.13-2.66 1.338 0 2.398.406 3.33 1.153l-.866 1.22c-.826-.616-1.65-.943-2.49-.943-.942 0-1.493.486-1.493 1.09v.026c0 .71.42 1.023 2.19 1.442 1.94.47 2.94 1.164 2.94 2.684v.025c0 1.716-1.35 2.74-3.273 2.74-1.4 0-2.724-.488-3.825-1.47zm12.93-7.833h4.087c1.153 0 2.057.34 2.646.916.484.498.76 1.18.76 1.978v.026c0 1.506-.904 2.41-2.174 2.777l2.475 3.47h-1.912l-2.253-3.195h-2.017v3.196h-1.61v-9.17zm3.97 4.545c1.152 0 1.885-.603 1.885-1.533v-.026c0-.982-.707-1.52-1.9-1.52h-2.344v3.078h2.358zm5.502-4.545h6.8v1.44h-5.188v2.384h4.598v1.44h-4.598v2.464h5.253v1.44h-6.864v-9.17zm8.777 0h1.716l2.79 4.335 2.79-4.336h1.717v9.17h-1.61v-6.58L326.5 47.4h-.057l-2.87-4.297v6.55h-1.584v-9.17zm11.37 0h6.8v1.44h-5.187v2.384h4.598v1.44h-4.598v2.464h5.253v1.44h-6.864v-9.17zm8.778 0h3.42c2.88 0 4.872 1.977 4.872 4.558v.026c0 2.58-1.99 4.585-4.873 4.585h-3.42v-9.17zm1.61 1.466v6.236h1.808c1.926 0 3.183-1.297 3.183-3.092v-.026c0-1.795-1.25-3.118-3.18-3.118h-1.8zm10.48 4.087l-3.64-5.554h1.91l2.556 4.04 2.593-4.05h1.84L355.85 46v3.656h-1.624V46.04z"/></svg>