<svg viewBox="0 0 360 120" xmlns="http://www.w3.org/2000/svg"><path d="m88.1 79.6v-51.6c0-14.2 11.7-25.9 27.2-25.9 8.5 0 17.1 3.5 22.1 10.8 5.1-7.3 13.6-10.8 22.1-10.8 15.5 0 27.2 11.7 27.2 25.9v51.6h-13.9v-48.4c0-9.6-5.4-15.8-13.6-15.8-9 0-14.9 5.1-14.9 18v46.2h-13.9v-46.2c0-13-5.9-18-14.9-18-8.2 0-13.6 6.2-13.6 15.8v48.4zm255.6-74-23 36 24.5 37.9h-15.5l-17.4-26.3-17 26.3h-15.4l24.4-37.9-23.3-36h16l15.5 24.3 15.4-24.3h15.8zm-263.6 34.4c0 22.3-17.4 39.5-39.9 39.5-22.1.1-39.7-17.5-39.7-39.5 0-21.9 17.6-39.5 39.7-39.5 22.5 0 39.9 17.2 39.9 39.5zm-66.4 0c0 16 11.3 27.8 26.3 27.8 15.6 0 26.8-11.6 26.8-27.8 0-16.3-11.1-27.7-26.8-27.7-15.2 0-26.3 11.8-26.3 27.7zm335.6 34.9c0-2.5 2.1-4.6 4.6-4.6s4.6 2.1 4.6 4.6-2.1 4.6-4.6 4.6-4.6-2.1-4.6-4.6zm4.6 3.9c2.1 0 3.9-1.8 3.9-3.9s-1.8-3.9-3.9-3.9-3.9 1.8-3.9 3.9 1.8 3.9 3.9 3.9zm-1.7-6.5h1.6c.9 0 2 .2 2 1.6 0 .9-.5 1-.8 1.2l.9 2.1h-1l-.8-2h-1v2h-.9zm.9 2.2h1.1c.4 0 .7-.2.7-.6s-.3-.6-.8-.6h-1zm-118.3-73.8c-24.6 0-39.6 17.2-39.6 39.1 0 22.5 15.7 40.7 37.7 40.7 7.9 0 12.5-1.1 17.3-4.5v-15.7c-4.3 4.1-9.7 6.8-15.9 6.8-14.7 0-25.1-12-25.1-26.2 0-14.5 9.7-26.8 25.2-26.8 12.8 0 24.9 7.3 24.9 21.7v43.2h14.1v-41.9c0-22-15-36.4-38.6-36.4zm-42.7 87h3.5v13.3h18.1v-13.3h3.5v29.9h-3.5v-13.4h-18.1v13.4h-3.5zm35.7 18.9c0-6.4 4.7-11.6 11.1-11.6 6.9 0 10.8 5.2 10.8 11.7v1.1h-18.4c.5 4.8 4 7.5 8.2 7.5 3.2 0 5.4-1.2 7.3-3.1l2.1 1.8c-2.3 2.5-5.2 4.1-9.5 4.1-6.4 0-11.6-4.7-11.6-11.5zm18.4-1.3c-.4-4-2.8-7.5-7.4-7.5-4 0-7.1 3.2-7.5 7.5zm11.5 5.9c0-4.7 4-7.2 9.9-7.2 3 0 5.1.4 7.1.9v-.8c0-4-2.6-6-6.9-6-2.7 0-4.9.7-7 1.6l-1-2.7c2.6-1.1 5.1-1.8 8.4-1.8s5.8.8 7.5 2.4c1.6 1.5 2.4 3.6 2.4 6.4v13.5h-3.3v-3.3c-1.6 2-4.3 3.8-8.4 3.8-4.3 0-8.7-2.3-8.7-6.8zm17.1-1.7v-2.1c-1.7-.5-4-.9-6.8-.9-4.3 0-6.8 1.8-6.8 4.6v.1c0 2.8 2.7 4.4 5.8 4.4 4.3-.2 7.8-2.6 7.8-6.1zm14.6-23.1h3.5v31.2h-3.5zm16.4 25.3v-13.3h-3.2v-2.9h3.2v-6.7h3.5v6.7h7.3v2.9h-7.3v12.9c0 2.7 1.6 3.7 3.9 3.7 1.2 0 2.1-.2 3.4-.8v2.8c-1.2.6-2.5.9-4.2.9-3.8 0-6.6-1.7-6.6-6.2zm20.5-25.3h3.5v12.9c1.5-2.4 3.9-4.3 7.9-4.3 5.6 0 8.9 3.6 8.9 8.8v13.7h-3.5v-12.9c0-4.1-2.3-6.7-6.4-6.7-4 0-6.9 2.8-6.9 6.9v12.6h-3.5z" fill="#fff"/></svg>