<svg id="Layer_1" xmlns="http://www.w3.org/2000/svg" viewBox="0 0 225 50"><style>.st0{fill:#C6A254;}</style><path class="st0" d="M55.7 49.4V17.2C55.7 8.3 63 1 72.7 1 78 1 83.4 3.2 86.5 7.7 89.7 3.2 95.1 1 100.4 1c9.7 0 17 7.3 17 16.2v32.2h-8.7V19.2c0-6-3.4-9.9-8.5-9.9-5.6 0-9.3 3.2-9.3 11.3v28.9h-8.7v-29c0-8.1-3.7-11.3-9.3-11.3-5.1 0-8.5 3.9-8.5 9.9v30.2h-8.7v.1zM215.5 3.2l-14.3 22.5 15.3 23.7h-9.7L195.9 33l-10.6 16.4h-9.6l15.2-23.7-14.7-22.5h10l9.7 15.2 9.6-15.2h10zM50.8 24.7c0 13.9-10.9 24.7-24.9 24.7C12 49.4 1 38.4 1 24.7S12 0 25.8 0c14.1 0 25 10.8 25 24.7zm-41.5 0c0 10 7 17.3 16.4 17.3 9.7 0 16.8-7.3 16.8-17.3 0-10.2-6.9-17.3-16.8-17.3-9.5 0-16.4 7.3-16.4 17.3zM219 46.5c0-1.6 1.3-2.9 2.9-2.9 1.6 0 2.9 1.3 2.9 2.9 0 1.6-1.3 2.9-2.9 2.9-1.6-.1-2.9-1.3-2.9-2.9zm2.8 2.4c1.3 0 2.4-1.1 2.4-2.4s-1.1-2.4-2.4-2.4-2.4 1.1-2.4 2.4 1.1 2.4 2.4 2.4zm-1-4h1c.6 0 1.2.1 1.2 1 0 .5-.3.6-.5.7l.6 1.3h-.6l-.5-1.2h-.6v1.2h-.6v-3zm.5 1.3h.7c.3 0 .5-.1.5-.4 0-.3-.2-.4-.5-.4h-.6l-.1.8zM147.4.1c-15.4 0-24.8 10.8-24.8 24.4 0 14.1 9.8 25.4 23.6 25.4 4.9 0 7.8-.7 10.8-2.8v-9.8c-2.7 2.5-6 4.2-9.9 4.2-9.2 0-15.7-7.5-15.7-16.4 0-9.1 6.1-16.8 15.8-16.8 8 0 15.6 4.6 15.6 13.6V49h8.8V22.9C171.5 9.1 162.2.1 147.4.1z"/></svg>